<?xml version="1.0" encoding="UTF-8" standalone="no"?>
<svg
   id="5fa69d9a-7a2b-40a8-8c10-89bc447ee54b"
   data-name="Layer 1"
   width="958.13"
   height="825.26"
   viewBox="0 0 958.13 825.26"
   version="1.1"
   sodipodi:docname="undraw_dorkodu-work-culture.svg"
   inkscape:version="1.2.1 (9c6d41e410, 2022-07-14)"
   inkscape:export-filename="/home/doruk/Code/www/public/images/undraw_dorkodu-work-culture.png"
   inkscape:export-xdpi="58.163486"
   inkscape:export-ydpi="58.163486"
   xml:space="preserve"
   xmlns:inkscape="http://www.inkscape.org/namespaces/inkscape"
   xmlns:sodipodi="http://sodipodi.sourceforge.net/DTD/sodipodi-0.dtd"
   xmlns:xlink="http://www.w3.org/1999/xlink"
   xmlns="http://www.w3.org/2000/svg"
   xmlns:svg="http://www.w3.org/2000/svg"
   xmlns:rdf="http://www.w3.org/1999/02/22-rdf-syntax-ns#"
   xmlns:cc="http://creativecommons.org/ns#"
   xmlns:dc="http://purl.org/dc/elements/1.1/"><metadata
     id="metadata630"><rdf:RDF><cc:Work
         rdf:about=""><dc:format>image/svg+xml</dc:format><dc:type
           rdf:resource="http://purl.org/dc/dcmitype/StillImage" /><dc:title>digital nomad</dc:title></cc:Work></rdf:RDF></metadata><sodipodi:namedview
     pagecolor="#ffffff"
     bordercolor="#666666"
     borderopacity="1"
     objecttolerance="10"
     gridtolerance="10"
     guidetolerance="10"
     inkscape:pageopacity="0"
     inkscape:pageshadow="2"
     inkscape:window-width="1920"
     inkscape:window-height="1016"
     id="namedview628"
     showgrid="false"
     inkscape:zoom="0.69403156"
     inkscape:cx="382.54744"
     inkscape:cy="489.89127"
     inkscape:window-x="0"
     inkscape:window-y="0"
     inkscape:window-maximized="1"
     inkscape:current-layer="5fa69d9a-7a2b-40a8-8c10-89bc447ee54b"
     inkscape:document-rotation="0"
     showguides="false"
     inkscape:pagecheckerboard="0"
     inkscape:showpageshadow="2"
     inkscape:deskcolor="#d1d1d1" /><defs
     id="defs13"><linearGradient
       id="6f2fad38-51e9-4777-a827-714473c680e6"
       x1="435.4"
       y1="753.06"
       x2="435.4"
       y2="680.27"
       gradientTransform="translate(319.47 -182.88)"
       gradientUnits="userSpaceOnUse"><stop
         offset="0"
         stop-color="gray"
         stop-opacity="0.25"
         id="stop2" /><stop
         offset="0.54"
         stop-color="gray"
         stop-opacity="0.12"
         id="stop4" /><stop
         offset="1"
         stop-color="gray"
         stop-opacity="0.1"
         id="stop6" /></linearGradient><linearGradient
       id="b1328fb4-c058-4868-b663-27c7261be430"
       x1="411.45"
       y1="794.05"
       x2="411.45"
       y2="721.53"
       gradientTransform="translate(333.62,-215.54)"
       xlink:href="#6f2fad38-51e9-4777-a827-714473c680e6" /><linearGradient
       id="24ee94f9-53b4-4fdf-9139-6d51ea6a4e54"
       x1="377.72"
       y1="768.65"
       x2="377.72"
       y2="696.12"
       gradientTransform="translate(363.13,-184.76)"
       xlink:href="#6f2fad38-51e9-4777-a827-714473c680e6" /><linearGradient
       id="ccc7dbde-9e07-4ef0-9a11-0f6ab25eb6ca"
       x1="367.14"
       y1="760.97"
       x2="367.14"
       y2="688.45"
       gradientTransform="translate(371.71,-172.23)"
       xlink:href="#6f2fad38-51e9-4777-a827-714473c680e6" /><linearGradient
       id="a60ac96b-019a-4131-9cc6-498566604ece"
       x1="568.1"
       y1="848.12"
       x2="568.1"
       y2="105.29"
       gradientTransform="matrix(1, 0, 0, 1, 0, 0)"
       xlink:href="#6f2fad38-51e9-4777-a827-714473c680e6" /><linearGradient
       id="8dd6f013-f11b-441a-9800-0d03dc0740bb"
       x1="638.55"
       y1="280.25"
       x2="916.88"
       y2="280.25"
       gradientUnits="userSpaceOnUse"><stop
         offset="0"
         stop-color="gray"
         stop-opacity="0.25"
         id="stop1814" /><stop
         offset="0.54"
         stop-color="gray"
         stop-opacity="0.12"
         id="stop1816" /><stop
         offset="1"
         stop-color="gray"
         stop-opacity="0.1"
         id="stop1818" /></linearGradient><linearGradient
       id="e927a054-4c7d-4a3b-bb46-bc5c1d4b184d"
       x1="192.89"
       y1="798.89"
       x2="192.89"
       y2="305.98"
       xlink:href="#8dd6f013-f11b-441a-9800-0d03dc0740bb" /><linearGradient
       id="e3491b7b-890d-4a85-a806-3cf3d862c8a7"
       x1="1815.14"
       y1="810.44"
       x2="1815.14"
       y2="409.29"
       gradientTransform="matrix(-1.2081051,0,0,1.2081051,3188.4973,-218.93383)"
       xlink:href="#8dd6f013-f11b-441a-9800-0d03dc0740bb" /><linearGradient
       id="8fcae9e5-a837-46bd-859d-51e037a86afe"
       x1="294.12"
       y1="842.7"
       x2="294.12"
       y2="213.7"
       gradientUnits="userSpaceOnUse"
       gradientTransform="matrix(0.64050254,0,0,0.64050254,1958.806,-830.12264)"><stop
         offset="0"
         stop-color="gray"
         stop-opacity="0.25"
         id="stop1183" /><stop
         offset="0.54"
         stop-color="gray"
         stop-opacity="0.12"
         id="stop1185" /><stop
         offset="1"
         stop-color="gray"
         stop-opacity="0.1"
         id="stop1187" /></linearGradient><linearGradient
       id="linear-gradient"
       x1="0.386"
       y1="0.356"
       x2="0.59"
       y2="0.614"
       gradientUnits="objectBoundingBox"><stop
         offset="0"
         stop-color="#face00"
         id="stop39998" /><stop
         offset="1"
         stop-color="#f68600"
         id="stop40000" /></linearGradient><linearGradient
       id="linear-gradient-2"
       x1="481.19023"
       y1="243.45332"
       x2="513.01981"
       y2="270.56314"
       xlink:href="#linear-gradient"
       gradientTransform="matrix(0.78963651,0,0,0.78947194,256.53202,31.445754)"
       gradientUnits="userSpaceOnUse" /></defs><title
     id="title15">digital nomad</title><path
     d="M 296.92842,110.04766 C 326.42981,83.788288 372.7372,78.395021 414.89359,80.495771 547.2913,87.090909 666.78154,150.99208 770.18285,223.28614 c 37.36911,26.17857 74.27362,54.38719 98.56353,90.42313 49.48881,73.37473 34.78356,175.01869 -33.98568,235.46574 -23.39104,20.5631 -51.75116,36.35912 -80.86876,50.30688 -51.77136,24.84541 -107.63311,102.04281 -166.3935,107.73907 -41.8938,4.03991 -84.31277,0.75748 -125.97428,-4.89838 C 345.14467,686.54676 230.90631,594.40172 135.15051,534.68185 93.115323,508.47298 53.574773,475.93157 36.263789,433.51259 18.952805,391.09361 30.032239,337.4841 72.915808,312.4064 c 17.735174,-10.37246 38.934572,-15.05874 59.699662,-19.45214 30.56187,-6.47394 61.60852,-12.85699 89.18086,-26.02707 28.48131,-13.59428 62.2145,-39.88395 56.55864,-69.97112 -6.03965,-32.28892 -10.88754,-60.64904 18.57345,-86.90841 z"
     fill="#79e08f"
     opacity="0.1"
     id="path19"
     style="fill:#3cdc56;fill-opacity:1;stroke-width:1.00998"
     sodipodi:nodetypes="cccccccccsccccc" /><g
     id="g1551"
     transform="matrix(0.60759326,0.25082499,-0.25082499,0.60759326,971.86975,458.71942)"><g
       id="g1812"
       transform="matrix(0.45781096,0,0,0.45781096,-846.47331,478.94201)" /></g><g
     id="g2957"
     transform="matrix(0.51534708,0,0,0.57371875,236.54477,200.37234)"><path
       d="m 1013.88,194.87001 a 250,250 0 0 0 -40.75001,-64.93 l -565.37,-5.57 465.52,-65.360003 a 264.16,264.16 0 0 0 -94.44,-18.73 264.71,264.71 0 0 0 -316.25,-10.73 263.63,263.63 0 0 0 -121,-29.16000018 c -125.62,0 -230.29,87.00000018 -253.77,202.38000318 z"
       fill="#79e08f"
       opacity="0.1"
       id="path1833"
       style="fill:#27d844;fill-opacity:1" /><path
       d="M 1079.48,359.63 A 244.43,244.43 0 0 0 1061.86,268.3 L 82,371.16 a 245.71,245.71 0 0 0 -23,58 l 303.43,45.23 -310.35,33 c 9.38,130.61 121.36,233.7 258.14,233.7 68.85,0 131.41,-26.14 177.77,-68.76 46.5,43.43 109.67,70.14 179.25,70.14 103.27,0 192.39,-58.79 233.89,-143.8 83.26,-26.43 147.94,-92.78 170.08,-175.79 L 687.48,363.36 h 392 c -0.02,-1.24 0,-2.48 0,-3.73 z"
       fill="#79e08f"
       opacity="0.1"
       id="path1835"
       transform="translate(-37.41,-50.3)"
       style="fill:#27d844;fill-opacity:1" /></g><g
     id="g30158"
     transform="translate(-1014.7583,1072.6848)"><polygon
       points=""
       fill="none"
       stroke="#c1272d"
       stroke-miterlimit="10"
       id="polygon1324" /></g><g
     id="g13442"
     transform="matrix(1.1785158,0,0,1.1785158,-901.61681,76.326537)"><g
       id="g13334"><g
         id="g23752"
         transform="matrix(6.0230899,0,0,6.0230899,1000.08,115.2663)"><path
           style="fill:#9bb2ca;fill-opacity:1"
           d="M 39.774,53.5 H 18.226 c -0.224,0 -0.311,-0.307 -0.124,-0.437 l 1.805,-1.273 c 1.947,-1.373 2.868,-3.891 2.3,-6.29 v 0 h 13.588 v 0.002 c -0.568,2.4 0.354,4.917 2.302,6.29 l 1.803,1.271 c 0.185,0.131 0.097,0.437 -0.126,0.437 z"
           id="path23666" /><path
           style="fill:#bbcbdb;fill-opacity:1"
           d="M 54.502,45.5 H 3.498 C 1.566,45.5 0,43.934 0,42.002 V 4.998 C 0,3.066 1.566,1.5 3.498,1.5 H 54.501 C 56.434,1.5 58,3.066 58,4.998 v 37.003 c 0,1.933 -1.566,3.499 -3.498,3.499 z"
           id="path23668" /><path
           style="fill:#29303d;fill-opacity:1"
           d="M 58,36.5 H 0 V 4.998 C 0,3.066 1.566,1.5 3.498,1.5 H 54.501 C 56.434,1.5 58,3.066 58,4.998 Z"
           id="path23670" /><path
           style="fill:#abbfd3;fill-opacity:1;stroke-width:0.923232"
           d="M 39.704137,55.55493 H 18.469789 c -0.761667,0 -1.384848,-0.623182 -1.384848,-1.384849 v 0 c 0,-0.761667 0.623181,-1.384849 1.384848,-1.384849 h 21.234348 c 0.761667,0 1.384849,0.623182 1.384849,1.384849 v 0 c 0,0.761667 -0.623182,1.384849 -1.384849,1.384849 z"
           id="path23688" /><g
           id="g23690">
</g><g
           id="g23692">
</g><g
           id="g23694">
</g><g
           id="g23696">
</g><g
           id="g23698">
</g><g
           id="g23700">
</g><g
           id="g23702">
</g><g
           id="g23704">
</g><g
           id="g23706">
</g><g
           id="g23708">
</g><g
           id="g23710">
</g><g
           id="g23712">
</g><g
           id="g23714">
</g><g
           id="g23716">
</g><g
           id="g23718">
</g></g></g></g><g
     id="g37786"
     transform="matrix(0.47904222,-0.64599707,0.57543365,0.74238849,-682.49271,1759.7215)"><g
       id="g37717">
</g><g
       id="g37719">
</g><g
       id="g37721">
</g><g
       id="g37723">
</g><g
       id="g37725">
</g><g
       id="g37727">
</g><g
       id="g37729">
</g><g
       id="g37731">
</g><g
       id="g37733">
</g><g
       id="g37735">
</g><g
       id="g37737">
</g><g
       id="g37739">
</g><g
       id="g37741">
</g><g
       id="g37743">
</g><g
       id="g37745">
</g><path
       fill="#d99e82"
       d="m 1682.2352,29.515764 c 10.8515,3.395188 30.9853,10.326732 39.0684,12.243802 6.5231,1.542456 13.011,3.21317 16.7499,2.822055 3.7341,-0.394444 5.4067,-3.766565 3.8506,-7.281955 0,0 -2.9187,-12.636208 -6.2863,-18.505884 -1.9048,-6.014493 -10.0042,-18.12862459 -10.0042,-18.12862459 -1.5653,-3.52070201 -5.9472,-6.25023301 -9.6859,-5.85844501 -3.736,0.397834 -8.2233,3.227331 -12.8521,5.95285901 -5.7279,3.37270799 -18.1612,13.75426659 -25.1646,19.02959659 -1.1926,0.904024 2.471,9.144335 4.3242,9.726596 z"
       id="path57211"
       style="stroke-width:4.50394" /><path
       fill="#ea596e"
       d="M 1853.0637,32.431204 A 15.557829,11.316202 30.000001 0 1 1834.006,21.428232 l -11.0591,-24.8675146 a 15.56839,11.323885 30.000001 0 1 8.0032,-13.8619514 l 27.0673,-2.859714 a 15.56839,11.323885 30.000001 0 1 19.0577,11.0029764 l 11.0545,24.8649256 a 15.557829,11.316202 30.000001 0 1 -8.0031,13.861961 z"
       id="path57213"
       style="stroke-width:4.50394" /><path
       fill="#ffcc4d"
       d="M 1738.0535,44.581621 1726.991,19.699028 1715.9378,-5.1475156 1817.4229,-15.872109 1839.53,33.860757 Z"
       id="path57215"
       style="stroke-width:4.50394" /><path
       fill="#292f33"
       d="m 1682.9455,15.980622 c 0,0 -12.0128,5.08023 -10.0709,9.448003 1.9418,4.36776 17.1792,6.525423 17.1792,6.525423 0,0 4.7087,-8.662836 -7.1083,-15.973426 z"
       id="path57217"
       style="stroke-width:4.50394" /><path
       fill="#ccd6dd"
       d="m 1851.2507,-19.445867 22.1116,49.735528 -33.8258,3.570378 -22.1136,-49.732148 z"
       id="path57219"
       style="stroke-width:4.50394" /><path
       fill="#99aab5"
       d="m 1844.4883,-18.728434 22.1091,49.729788 -6.7668,0.714781 -22.1091,-49.729489 z m -13.5409,1.421161 22.1119,49.735903 -6.767,0.714696 -22.1072,-49.733165 z"
       id="path57221"
       style="stroke-width:4.50394" /><g
       fill="none"
       id="g64283"
       transform="matrix(4.675711,4.0686184,-3.624196,3.0171035,1812.7277,57.742776)"
       inkscape:transform-center-x="3.3667019"
       inkscape:transform-center-y="-1.2190601"><path
         fill="#7d4533"
         d="m 13.121,8.879 15,15 a 3,3 0 1 1 -4.242,4.242 l -15,-15 4.241,-4.241 z"
         id="path64277" /><path
         fill="#b4acbc"
         d="M 11.427,2.23 4.353,9.303 a 0.5,0.5 0 0 0 0,0.707 L 6,13 8.95,14.607 a 0.5,0.5 0 0 0 0.707,0 l 4.95,-4.95 a 0.5,0.5 0 0 0 0,-0.707 L 12.657,7 C 12.18,6.52 12.607,6 12.607,6 L 15.331,3.276 A 0.5,0.5 0 0 0 15.03,2.426 L 11.834,2.086 A 0.5,0.5 0 0 0 11.427,2.23 Z m 14.893,6.895 2.55,-2.55 c 0.32,-0.33 0.88,-0.17 0.99,0.28 0.4,1.66 -0.04,3.48 -1.34,4.78 a 5.058,5.058 0 0 1 -5.115,1.244 l -9.736,9.804 a 5.077,5.077 0 0 1 -1.32,5.102 5.062,5.062 0 0 1 -4.72,1.28 0.592,0.592 0 0 1 -0.28,-0.99 l 2.55,-2.55 c 0.23,-0.23 0.23,-0.6 0,-0.83 l -1.61,-1.61 a 0.585,0.585 0 0 0 -0.83,0 l -2.55,2.55 c -0.32,0.33 -0.88,0.17 -0.99,-0.28 -0.4,-1.66 0.04,-3.48 1.34,-4.78 a 5.058,5.058 0 0 1 5.166,-1.228 l 9.702,-9.77 a 5.078,5.078 0 0 1 1.303,-5.152 5.062,5.062 0 0 1 4.72,-1.28 c 0.45,0.11 0.6,0.67 0.28,0.99 l -2.55,2.55 c -0.23,0.23 -0.23,0.6 0,0.83 l 1.61,1.61 c 0.23,0.23 0.6,0.23 0.83,0 z"
         id="path64279"
         style="fill:#acaebc;fill-opacity:1" /><path
         fill="#cdc4d6"
         d="m 1.177,11.298 a 0.25,0.25 0 0 1 0,-0.353 L 1.82,10.301 a 2,2 0 0 1 2.829,0 l 3.889,3.89 a 2,2 0 0 1 0,2.828 l -0.644,0.643 a 0.25,0.25 0 0 1 -0.353,0 z"
         id="path64281"
         style="fill:#c4c7d6;fill-opacity:1" /></g></g><path
     fill="#2e7d32"
     d="M 511.76073,148.06347 404.45352,119.3106 c -2.31388,-0.62 -3.6901,-3.0038 -3.0701,-5.3177 l 17.42739,-65.039888 c 0.6226,-2.323524 3.0089,-3.709449 5.3421,-3.08426 l 107.27824,28.745094 c 2.32353,0.622603 3.7094,3.008996 3.08423,5.342176 L 517.088,144.99588 a 4.359856,4.359856 0 0 1 -5.32727,3.06759 z"
     id="path46462"
     style="stroke-width:0.998135" /><path
     fill="#66bb6a"
     d="M 515.03256,136.35398 407.47477,107.53401 a 4.212132,4.212132 0 0 1 -2.97839,-5.15881 l 14.31443,-53.422188 c 0.6226,-2.323524 3.0089,-3.709449 5.3421,-3.08426 l 107.27824,28.745094 c 2.32353,0.622603 3.7094,3.008996 3.08423,5.342176 l -14.31443,53.422168 a 4.2281021,4.2281021 0 0 1 -5.16839,2.97579 z"
     id="path46464"
     style="stroke-width:0.998135" /><path
     fill="#ffffff"
     d="m 444.14567,92.001631 c 0.31775,-1.18586 0.17196,-2.29964 -0.4403,-3.33164 -0.61215,-1.032049 -1.82089,-2.151569 -3.62169,-3.336789 -2.52302,-1.57504 -4.23645,-3.20186 -5.12806,-4.88746 -0.90138,-1.688175 -1.06823,-3.57226 -0.51281,-5.645118 0.56834,-2.121073 1.65038,-3.691163 3.24612,-4.710267 1.59843,-1.028763 3.50967,-1.374301 5.72938,-1.058522 l 0.89644,-3.345517 c 0.13173,-0.491703 0.64515,-0.78815 1.13692,-0.656388 l 1.08945,0.291944 c 0.49166,0.13174 0.78808,0.645161 0.65634,1.136849 l -0.9016,3.364805 c 2.08918,0.880157 3.53353,2.23853 4.33054,4.084755 0.71297,1.6584 0.82511,3.631133 0.33374,5.927829 -0.0995,0.44867 -0.56405,0.71686 -1.00761,0.59801 l -1.99569,-0.53475 c -0.42424,-0.11368 -0.66165,-0.53897 -0.58653,-0.973531 0.2892,-1.503494 0.18529,-2.812678 -0.3117,-3.927516 -0.58083,-1.302702 -1.6028,-2.155197 -3.06832,-2.547858 -1.53291,-0.410764 -2.81515,-0.330634 -3.83939,0.252569 -1.02166,0.573586 -1.73592,1.580892 -2.11566,2.998155 -0.35393,1.320858 -0.20162,2.488004 0.4468,3.499004 0.64889,1.010857 1.87491,2.104077 3.67124,3.267397 1.79631,1.16333 3.14065,2.2779 4.04278,3.34625 0.89245,1.06581 1.47427,2.17242 1.72107,3.333859 0.24683,1.16151 0.18677,2.42677 -0.18006,3.79581 -0.58384,2.17893 -1.70959,3.75797 -3.37734,4.73713 -1.66775,0.97917 -3.71136,1.27892 -6.13801,0.887 l -0.74918,2.795969 c -0.13176,0.49171 -0.64528,0.78812 -1.13692,0.65637 l -1.07982,-0.28933 c -0.49175,-0.13174 -0.78816,-0.64519 -0.65641,-1.1369 l 0.74917,-2.795969 c -2.3412,-0.86498 -3.99391,-2.21721 -4.95295,-4.07585 -0.85825,-1.65598 -1.06297,-3.59149 -0.60709,-5.794369 0.0898,-0.45126 0.56415,-0.71686 1.00761,-0.59805 l 2.01502,0.53994 c 0.40491,0.10852 0.67188,0.500369 0.59236,0.913059 -0.28403,1.48425 -0.12867,2.75557 0.4657,3.81411 0.68644,1.21729 1.88526,2.06549 3.62064,2.53047 1.68729,0.45211 3.12615,0.40368 4.31959,-0.15492 1.17918,-0.58303 1.95835,-1.56259 2.33553,-2.97021 z"
     id="path46466"
     style="stroke-width:0.998135" /><path
     fill="#ffffff"
     d="m 437.99799,99.365111 -2.64393,-1.58674 8.03143,-28.662358 0.26093,-0.973755 2.64246,1.669048 -8.06616,28.715055 z"
     id="path46468"
     style="stroke-width:0.998135" /><circle
     cx="497.83957"
     cy="-33.532703"
     fill="#2e7d32"
     opacity="0.5"
     id="circle46470"
     style="stroke-width:0.998135"
     r="18.465508"
     transform="rotate(15)" /><path
     fill="#2e7d32"
     d="m 516.85691,78.138445 c -0.56597,5.428457 2.45487,10.660606 7.43896,12.884736 l -7.37293,27.516129 c -5.42842,-0.56583 -10.66062,2.45491 -12.88469,7.439 l -81.97958,-21.96634 c 0.25951,-5.210839 -2.73332,-10.084189 -7.49643,-12.207769 l 7.37293,-27.516132 c 5.65794,0.596348 11.08844,-2.70195 13.14463,-8.061751 l 81.77711,21.912127 M 519.1475,76.685562 433.72605,53.79693 c -0.0472,0.214668 -0.0944,0.429403 -0.15378,0.651138 -1.52676,5.697983 -7.38229,9.078718 -13.08038,7.551938 l -8.32619,31.073735 c 5.47632,1.46738 8.81504,6.939689 7.70576,12.429209 l 85.43122,22.89119 c 1.52676,-5.69797 7.38229,-9.0787 13.08028,-7.55196 l 8.32619,-31.073739 c -5.70766,-1.52933 -9.08842,-7.384929 -7.56165,-13.082879 z"
     id="path46472"
     style="stroke-width:0.998135" /><path
     fill="#ffecb3"
     d="m 467.18181,57.398303 21.22043,5.685997 -19.68008,73.44703 -21.22042,-5.68599 z"
     id="path46474"
     style="stroke-width:0.998135" /><path
     fill="#ffc06c"
     d="m 450.64828,119.1023 21.22041,5.686 -3.14653,11.74303 -21.22042,-5.68599 z"
     id="path46476"
     style="stroke-width:0.998135" /><g
     fill="none"
     id="g49250"
     transform="matrix(3.8177876,-1.0229731,1.0229731,3.8177876,573.53501,69.550381)"><path
       fill="#b4acbc"
       d="m 7,5.5 h 23 v 18 H 7 Z"
       id="path49244" /><path
       fill="#cdc4d6"
       d="M 8.29,6.017 V 9.5 H 29.5 a 0.5,0.5 0 1 1 0,1 H 8.29 v 3.514 H 29.5 a 0.5,0.5 0 1 1 0,1 H 8.29 V 18.5 H 29.5 a 0.5,0.5 0 1 1 0,1 H 8.29 v 3.516 H 29.5 a 0.5,0.5 0 1 1 0,1 H 4.3 A 0.5,0.5 0 0 1 4.173,24 H 2.8 A 0.8,0.8 0 0 1 2,23.204 V 5.824 A 0.8,0.8 0 0 1 2.8,5.027 H 4.196 A 0.502,0.502 0 0 1 4.3,5.017 h 25.2 a 0.5,0.5 0 1 1 0,1 z"
       id="path49246" /><path
       fill="#1c1c1c"
       d="m 19.01,2.25 a 2.892,2.892 0 0 0 -2.89,2.89 v 6.257 a 6.514,6.514 0 0 0 -5.13,6.363 5.35,5.35 0 0 0 5.12,5.345 v 3.875 a 1.75,1.75 0 0 1 -3.118,1.09 1.62,1.62 0 1 0 -1.87,-1.672 0.754,0.754 0 0 0 -0.012,0.132 v 0.45 a 3.25,3.25 0 0 0 6.5,0 V 22.925 A 4.436,4.436 0 0 0 20.77,18.68 3.7,3.7 0 0 0 17.61,15.02 V 12.742 A 0.75,0.75 0 0 0 17.709,12.721 5.04,5.04 0 0 0 21.91,7.75 V 5.134 A 2.908,2.908 0 0 0 19.01,2.25 Z m 0.26,16.43 a 2.934,2.934 0 0 1 -1.66,2.64 v -4.773 a 2.2,2.2 0 0 1 1.66,2.133 z m -3.16,2.923 a 3.85,3.85 0 0 1 -3.62,-3.843 5.014,5.014 0 0 1 3.62,-4.815 v 2.187 a 3.117,3.117 0 0 0 -2.15,2.958 0.75,0.75 0 0 0 1.5,0 c 0,-0.527 0.256,-0.996 0.65,-1.29 z M 17.62,5.14 c 0,-0.766 0.624,-1.39 1.39,-1.39 0.764,0 1.392,0.623 1.4,1.394 V 7.75 a 3.54,3.54 0 0 1 -2.79,3.46 z"
       id="path49248" /></g><path
     fill="#31373d"
     d="m 425.27014,705.68053 -0.0204,-0.01 c 0,0 -9.0241,63.01164 -8.82989,72.06315 0.1979,9.22342 7.14942,16.55153 15.52837,16.37174 3.43856,-0.0738 6.54573,-1.44567 9.04368,-3.62406 l 50.43672,-46.29981 z m 160.24699,-3.43825 0.02,-0.0105 c 0,0 11.71851,62.56658 11.91271,71.61809 0.19791,9.22342 -6.43289,16.84295 -14.81185,17.02273 -3.43855,0.0738 -6.6017,-1.16359 -9.1908,-3.23283 l -52.37618,-44.09388 z"
     id="path51440"
     style="stroke-width:5.05787" /><g
     fill="#14171a"
     id="g51448"
     transform="matrix(5.0567053,-0.10849649,0.10849649,5.0567053,412.88753,630.78923)"
     style="fill:#20262c;fill-opacity:1"><circle
       cx="25.975"
       cy="15.551"
       r="8.5"
       id="circle51442"
       style="fill:#20262c;fill-opacity:1" /><circle
       cx="9.9750004"
       cy="15.551"
       r="8.5"
       id="circle51444"
       style="fill:#20262c;fill-opacity:1" /><path
       d="m 9.975,7.051 h 16 v 16.87 h -16 z"
       id="path51446"
       style="fill:#20262c;fill-opacity:1" /></g><circle
     cx="465.39304"
     cy="757.35419"
     r="25.289345"
     fill="#14171a"
     id="circle51450"
     style="fill:#21272c;fill-opacity:1;stroke-width:5.05787"
     transform="rotate(-1.229148)" /><circle
     cx="514.96008"
     cy="757.35419"
     r="25.289345"
     fill="#14171a"
     id="circle51452"
     style="fill:#21272c;fill-opacity:1;stroke-width:5.05787"
     transform="rotate(-1.229148)" /><circle
     cx="514.96008"
     cy="757.35419"
     r="15.173607"
     fill="#67757f"
     id="circle51454"
     style="fill:#454e54;fill-opacity:1;stroke-width:5.05787"
     transform="rotate(-1.229148)" /><circle
     cx="465.39304"
     cy="757.35419"
     r="15.173607"
     fill="#67757f"
     id="circle51456"
     style="fill:#454e54;fill-opacity:1;stroke-width:5.05787"
     transform="rotate(-1.229148)" /><circle
     cx="529.42572"
     cy="695.81018"
     r="8.1077642"
     fill="#ffcc4d"
     id="circle51458"
     style="stroke-width:5.05787"
     transform="rotate(-1.229148)" /><circle
     cx="529.42572"
     cy="728.55481"
     r="8.1077642"
     fill="#77b255"
     id="circle51460"
     style="stroke-width:5.05787"
     transform="rotate(-1.229148)" /><circle
     cx="513.05334"
     cy="712.1825"
     r="8.1077642"
     fill="#50a5e6"
     id="circle51462"
     style="stroke-width:5.05787"
     transform="rotate(-1.229148)" /><circle
     cx="545.79803"
     cy="712.1825"
     r="8.1077642"
     fill="#dd2e44"
     id="circle51464"
     style="stroke-width:5.05787"
     transform="rotate(-1.229148)" /><path
     fill="#8899a6"
     d="m 470.61741,692.85932 -0.23523,-10.96295 a 2.5542239,2.5542239 0 0 0 -2.60842,-2.49884 l -7.87834,0.16904 a 2.5542239,2.5542239 0 0 0 -2.49885,2.60842 l 0.23522,10.96294 6.63222,6.35855 z m -12.59683,18.63456 0.23522,10.96294 c 0.0303,1.41082 1.1976,2.52911 2.60842,2.49884 l 7.87835,-0.16903 a 2.5542239,2.5542239 0 0 0 2.49885,-2.60843 l -0.23523,-10.96293 -6.63223,-6.35857 z m 26.30743,-16.24746 -10.96293,0.23522 -6.35845,6.63728 6.63728,6.35846 10.96294,-0.23523 a 2.5592818,2.5592818 0 0 0 2.49885,-2.60842 l -0.16915,-7.88341 a 2.5592818,2.5592818 0 0 0 -2.60854,-2.5039 z m -29.32382,0.62918 -10.96801,0.23533 a 2.5592818,2.5592818 0 0 0 -2.49883,2.60842 l 0.16903,7.87835 c 0.0303,1.41081 1.1976,2.52912 2.60842,2.49884 l 10.96294,-0.23521 6.35845,-6.63729 z"
     id="path51466"
     style="stroke-width:5.05787" /><path
     fill="#8899a6"
     d="m 838.39463,432.03415 -13.15062,98.97304 c -1.84605,6.88957 13.40973,16.96226 34.07845,22.50042 20.66871,5.53817 38.91695,4.44285 40.76301,-2.44672 l 38.09776,-92.28846 z"
     id="path54735"
     style="stroke-width:4.30454" /><path
     fill="#d3a471"
     d="m 842.55248,433.14825 -12.75399,97.49283 c -1.38481,5.16821 12.38674,13.34588 30.75616,18.26793 18.36942,4.92208 34.38475,4.7258 35.76957,-0.44242 l 37.70114,-90.80826 z"
     id="path54737"
     style="stroke-width:4.30454" /><path
     fill="#ccd6dd"
     d="m 918.22676,495.93006 15.7986,-38.27173 -91.47288,-24.51008 -5.45385,41.04359 z"
     id="path54739"
     style="stroke-width:4.30454" /><path
     fill="#e1e8ed"
     d="m 910.85072,493.95365 14.85893,-38.5235 -74.84146,-20.05371 -6.39353,40.7918 z"
     id="path54741"
     style="stroke-width:4.30454" /><ellipse
     cx="973.30005"
     cy="241.01984"
     fill="#ecd2a7"
     rx="42.029446"
     ry="10.137172"
     id="ellipse54743"
     style="stroke-width:4.30454"
     transform="rotate(15)" /><path
     fill="#aa8dd8"
     d="m 894.05117,487.69641 26.89319,-73.30738 -12.12287,-4.45154 -27.29378,74.40327 z"
     id="path54745"
     style="stroke-width:4.30454" /><path
     fill="#55acee"
     d="m 837.12729,431.70794 c -1.91404,4.16634 -3.30619,9.64454 -1.09812,10.96702 1.76556,1.06134 4.69054,0.85576 6.61754,2.56195 1.92698,1.70619 2.92891,5.08521 4.97941,6.46352 3.92755,2.63887 7.30999,0.62626 9.82177,1.64688 4.77463,1.93891 5.72516,7.25605 9.70487,8.71903 3.97554,1.46186 8.22735,-1.08431 12.02027,0.0613 4.05568,1.22931 3.03725,4.23186 9.42355,6.07677 6.27101,1.80954 8.4112,-2.0199 12.18269,-1.27672 3.77039,0.74734 5.5068,3.91319 9.13104,4.22475 3.62533,0.3074 6.02682,-2.91726 9.06606,-2.90059 3.03814,0.0208 3.98178,2.51971 6.61755,2.56195 2.63465,0.0464 5.07465,-3.85421 6.85759,-4.57078 1.77766,-0.71353 5.12824,6.98914 7.16232,-5.49182 3.70728,-22.75023 -78.91259,-23.65351 -86.0657,-26.09603 -7.15615,-2.4478 -12.45957,-11.56056 -16.42084,-2.94718 z"
     id="path54747"
     style="stroke-width:4.30454" /><ellipse
     cx="973.30005"
     cy="200.36781"
     fill="#88c9f9"
     rx="53.160973"
     ry="16.357222"
     id="ellipse54749"
     style="stroke-width:4.30454"
     transform="rotate(15)" /><path
     fill="#9266cc"
     d="m 920.94436,414.38903 -12.12398,-4.44739 -14.10159,38.44124 c -0.0122,0.0279 -0.0395,0.0474 -0.0462,0.0722 -0.3075,1.14757 2.23704,2.82759 5.67974,3.75006 3.4427,0.92248 6.48634,0.73979 6.79382,-0.40779 l 0.002,-0.005 0.0706,0.0188 z"
     id="path54751"
     style="stroke-width:4.30454" /><path
     fill="#553788"
     d="m 920.94436,414.38903 c -0.41032,1.11555 -3.45668,1.02567 -6.80335,-0.2053 -3.34779,-1.22681 -5.72984,-3.13069 -5.31952,-4.24624 0.41033,-1.11555 3.45668,-1.02569 6.80336,0.20529 3.34668,1.23097 5.72985,3.1307 5.31951,4.24625 z"
     id="path54753"
     style="stroke-width:4.30454" /><ellipse
     cx="983.26074"
     cy="239.87904"
     fill="#aa8dd8"
     rx="6.4567981"
     ry="2.152266"
     id="ellipse54755"
     style="stroke-width:4.30454"
     transform="rotate(15)" /><g
     fill="#292f33"
     id="g54763"
     transform="matrix(4.1578584,1.1140948,-1.1140948,4.1578584,824.58842,383.771)"><path
       d="M 11.295,29.554 C 10.968,29.881 10.384,29.829 9.992,29.437 9.6,29.045 9.547,28.461 9.875,28.134 c 0.327,-0.327 0.911,-0.275 1.303,0.117 0.392,0.392 0.444,0.975 0.117,1.303 z m 2.938,4.348 c -0.089,0.351 -0.5,0.549 -0.917,0.444 -0.417,-0.106 -0.684,-0.476 -0.595,-0.827 0.089,-0.351 0.5,-0.55 0.917,-0.444 0.418,0.106 0.684,0.476 0.595,0.827 z m 3.551,-6.591 c -0.094,0.37 -0.508,0.583 -0.926,0.478 -0.417,-0.106 -0.68,-0.491 -0.586,-0.861 0.094,-0.37 0.508,-0.583 0.926,-0.478 0.417,0.106 0.68,0.492 0.586,0.861 z"
       id="path54757" /><ellipse
       cx="17.216999"
       cy="33.801998"
       rx="1.071"
       ry="0.90499997"
       id="ellipse54759" /><path
       d="m 25.148,26.582 c 0.102,0.45 -0.206,0.904 -0.688,1.013 -0.482,0.11 -0.956,-0.166 -1.059,-0.616 -0.102,-0.45 0.206,-0.903 0.688,-1.013 0.482,-0.11 0.956,0.166 1.059,0.616 z m -2.993,4.497 c -0.184,0.561 -0.75,0.879 -1.265,0.71 -0.514,-0.169 -0.782,-0.76 -0.598,-1.322 0.184,-0.562 0.75,-0.879 1.265,-0.71 0.514,0.169 0.782,0.76 0.598,1.322 z M 17.029,30.6 c 0.166,0.531 -0.114,1.091 -0.626,1.251 -0.512,0.16 -1.061,-0.141 -1.227,-0.672 -0.166,-0.531 0.114,-1.091 0.626,-1.251 0.511,-0.16 1.061,0.141 1.227,0.672 z m 2.381,-0.292 c -0.455,0.238 -1.01,0.076 -1.239,-0.361 -0.229,-0.438 -0.046,-0.986 0.41,-1.224 0.455,-0.238 1.01,-0.077 1.239,0.361 0.229,0.438 0.045,0.986 -0.41,1.224 z m 1.699,2.608 c 0.082,0.501 -0.334,0.986 -0.929,1.083 -0.595,0.097 -1.144,-0.23 -1.225,-0.731 -0.082,-0.501 0.334,-0.986 0.929,-1.083 0.595,-0.097 1.143,0.23 1.225,0.731 z m -6.762,-3.885 c -0.351,0.289 -0.946,0.145 -1.329,-0.321 -0.383,-0.466 -0.408,-1.077 -0.057,-1.366 0.351,-0.289 0.946,-0.145 1.329,0.32 0.382,0.467 0.408,1.079 0.057,1.367 z m 9.457,3.687 c 0.251,0.394 0.066,0.961 -0.412,1.266 -0.479,0.305 -1.07,0.232 -1.321,-0.163 -0.251,-0.394 -0.066,-0.961 0.412,-1.266 0.478,-0.304 1.07,-0.232 1.321,0.163 z m 1.778,-0.814 c 0.304,0.208 0.32,0.714 0.036,1.13 -0.284,0.417 -0.761,0.586 -1.066,0.378 -0.304,-0.208 -0.32,-0.714 -0.036,-1.13 0.285,-0.416 0.762,-0.586 1.066,-0.378 z M 9.728,25.434 c 0.278,-0.015 0.522,0.335 0.547,0.783 0.024,0.448 -0.181,0.823 -0.458,0.838 C 9.539,27.07 9.295,26.72 9.27,26.272 9.245,25.824 9.451,25.449 9.728,25.434 Z M 23.845,28.9 c 0.19,0.326 0.044,0.764 -0.326,0.98 -0.37,0.216 -0.824,0.127 -1.014,-0.199 -0.19,-0.326 -0.044,-0.764 0.326,-0.98 0.37,-0.216 0.824,-0.127 1.014,0.199 z m -5.291,2.468 c 0.27,0.184 0.319,0.581 0.11,0.887 -0.209,0.306 -0.596,0.404 -0.866,0.22 -0.27,-0.184 -0.319,-0.581 -0.11,-0.887 0.209,-0.305 0.597,-0.404 0.866,-0.22 z m 7.324,-2.306 c 0.295,0.078 0.441,0.493 0.327,0.928 -0.115,0.435 -0.446,0.725 -0.741,0.647 -0.295,-0.078 -0.441,-0.493 -0.327,-0.928 0.115,-0.435 0.446,-0.725 0.741,-0.647 z M 26,27.13 c 0.231,0.061 0.341,0.405 0.245,0.769 -0.096,0.364 -0.361,0.61 -0.592,0.549 C 25.422,28.387 25.312,28.043 25.408,27.679 25.504,27.315 25.769,27.07 26,27.13 Z m -1.272,3.396 c 0.3,0.274 0.254,0.812 -0.102,1.203 -0.357,0.391 -0.889,0.486 -1.189,0.212 -0.3,-0.274 -0.254,-0.812 0.102,-1.203 0.357,-0.391 0.889,-0.486 1.189,-0.212 z m -11.456,0.686 c -0.242,0.356 -0.801,0.399 -1.249,0.095 -0.448,-0.304 -0.615,-0.839 -0.373,-1.196 0.242,-0.357 0.801,-0.399 1.249,-0.095 0.448,0.304 0.615,0.84 0.373,1.196 z m 8.985,-3.5 c 0.034,0.457 -0.375,0.86 -0.915,0.901 -0.54,0.041 -1.005,-0.297 -1.04,-0.753 -0.034,-0.457 0.375,-0.86 0.915,-0.901 0.54,-0.041 1.005,0.296 1.04,0.753 z m -7.088,5.02 c -0.267,0.338 -0.828,0.34 -1.253,0.004 -0.425,-0.335 -0.553,-0.881 -0.286,-1.219 0.267,-0.338 0.828,-0.34 1.252,-0.004 0.425,0.335 0.554,0.881 0.287,1.219 z m -3.382,-0.593 c 0.341,0.451 0.332,1.034 -0.022,1.301 -0.353,0.267 -0.916,0.118 -1.258,-0.334 -0.342,-0.452 -0.332,-1.034 0.022,-1.301 0.353,-0.267 0.916,-0.118 1.258,0.334 z"
       id="path54761" /></g><path
     fill="#d99e82"
     d="m 836.49824,278.77207 c -28.348,16.36673 -39.95601,49.334 -25.92879,73.62986 1.75504,3.03983 3.82825,5.80093 6.1701,8.27004 10.11264,5.79989 10.44217,-1.73614 21.84721,-19.01254 11.61602,-17.59593 6.58554,11.40649 7.46785,26.10576 0.2713,4.52005 2.93479,6.94032 6.74024,7.98649 11.37096,0.29411 23.39604,-2.57266 34.50597,-8.98697 28.34802,-16.36675 39.95768,-49.33117 25.92717,-73.63274 -14.02722,-24.29585 -48.38172,-30.72665 -76.72975,-14.3599 z m 48.37353,65.02315 c 1.08964,4.48861 -3.84735,9.53664 -11.02906,11.27623 -7.18008,1.74245 -13.88115,-0.47976 -14.97245,-4.97122 -1.08964,-4.48861 3.84735,-9.53665 11.03071,-11.27339 7.17842,-1.74529 13.8795,0.47691 14.9708,4.96838 z"
     id="path59413"
     style="stroke-width:3.29277" /><circle
     cx="558.7005"
     cy="685.54419"
     r="9.8783236"
     fill="#5c913b"
     id="circle59415"
     style="stroke-width:3.29277"
     transform="rotate(-30)" /><circle
     cx="591.62823"
     cy="678.95862"
     r="9.8783236"
     fill="#226699"
     id="circle59417"
     style="stroke-width:3.29277"
     transform="rotate(-30)" /><circle
     cx="621.26324"
     cy="698.71533"
     r="9.8783236"
     fill="#dd2e44"
     id="circle59419"
     style="stroke-width:3.29277"
     transform="rotate(-30)" /><circle
     cx="617.9704"
     cy="728.3504"
     r="9.8783236"
     fill="#ffcc4d"
     id="circle59421"
     style="stroke-width:3.29277"
     transform="rotate(-30)" /><path
     fill="#e1e8ed"
     d="m 153.08286,85.152417 c -2.26101,3.916201 -0.98523,8.921033 2.87463,11.276952 l -11.36122,19.678231 45.89376,26.49678 11.36123,-19.67823 c 3.98362,2.29994 9.07744,0.93506 11.37738,-3.04856 -7.30794,-4.21923 -18.60107,-7.76705 -29.68722,-12.44416 -12.33282,-5.20307 -24.40948,-11.803711 -30.45856,-22.281013 z"
     id="path60907"
     style="stroke-width:4.16356"
     sodipodi:nodetypes="ccccccsc" /><path
     fill="#ccd6dd"
     d="M 150.48073,83.208154 97.638671,97.335692 c -8.88581,2.375657 -14.156939,11.512748 -11.776347,20.397228 l 30.173096,112.60753 c 2.38059,8.88449 11.51274,14.15694 20.39723,11.77635 l 88.47734,-23.70743 c 8.88449,-2.38059 14.15694,-11.51274 11.77635,-20.39723 l -20.73594,-76.58017 -38.08916,1.82301 c -4.15881,0.19905 -9.121,-1.86647 -10.19862,-5.88817 z"
     id="path60909"
     style="fill:#e0e7eb;fill-opacity:1;stroke-width:4.16356"
     sodipodi:nodetypes="csssssscscc" /><path
     fill="#99aab5"
     d="m 149.92074,83.326754 9.69849,36.195276 c 2.3806,8.88448 11.51274,14.15693 20.39723,11.77634 l 36.19528,-9.69849 c 0,0 -43.32442,-38.273126 -66.291,-38.273126 z m -3.4442,35.406406 c 0.59515,2.22112 -0.72297,4.50416 -2.94409,5.09931 l -32.17359,8.62088 c -5.35754,1.42864 -7.5093,-6.60186 -2.15522,-8.04339 l 32.17359,-8.62088 c 2.22112,-0.59515 4.50416,0.72296 5.09931,2.94408 z m 4.31044,16.08678 c 0.59516,2.22113 -0.72296,4.50417 -2.94409,5.09932 l -32.17359,8.62089 c -5.36226,1.43681 -7.51748,-6.60659 -2.15522,-8.0434 l 32.17359,-8.62089 c 2.22112,-0.59515 4.50416,0.72296 5.09931,2.94408 z m 52.5708,3.15547 c 0.59516,2.22112 -0.72295,4.50417 -2.94408,5.09932 l -80.43395,21.55221 c -5.35764,1.42882 -7.50949,-6.60196 -2.15522,-8.04339 l 80.43394,-21.55222 c 2.22112,-0.59515 4.50416,0.72296 5.09931,2.94408 z m 4.31044,16.08679 c 0.59516,2.22112 -0.72295,4.50417 -2.94408,5.09932 l -80.43395,21.55221 c -5.36666,1.44446 -7.52512,-6.61099 -2.15522,-8.04339 l 80.43395,-21.55222 c 2.22112,-0.59514 4.50415,0.72296 5.0993,2.94408 z m 4.31045,16.0868 c 0.59514,2.22112 -0.72297,4.50415 -2.94409,5.0993 l -80.43395,21.55222 c -5.36352,1.43899 -7.51874,-6.60441 -2.15522,-8.0434 l 80.43395,-21.55221 c 2.22112,-0.59515 4.50416,0.72297 5.09931,2.94409 z m 4.31043,16.08679 c 0.59514,2.22112 -0.72296,4.50415 -2.94408,5.0993 l -80.43395,21.55222 c -5.36352,1.43899 -7.51874,-6.60441 -2.15522,-8.0434 l 80.43396,-21.55221 c 2.22112,-0.59514 4.50414,0.72298 5.09929,2.94409 z"
     id="path60911"
     style="fill:#c4ced4;fill-opacity:1;stroke-width:4.16356"
     sodipodi:nodetypes="cssccssccssscsssssccccssccccsssccsssccccs" /><path
     fill="#66757f"
     d="m 222.6774,145.73007 c 0,0 -23.75434,6.35617 -23.86877,6.39562 -1.17032,0.31359 -3.47225,1.68039 -4.39421,3.78955 l -6.20618,14.28822 c -1.71819,3.94754 -0.30652,9.21596 3.1574,11.78358 l 12.51883,9.27088 c 1.85301,1.36559 4.52995,1.39833 5.70026,1.08474 0.0786,-0.0122 14.26496,-3.82228 23.86878,-6.39561 z"
     id="path60913"
     style="fill:#adb4bc;fill-opacity:1;stroke-width:4.16356" /><path
     fill="#744eaa"
     d="m 230.7208,143.57485 c 0,0 -32.401,8.67303 -32.5114,8.71141 -1.17032,0.31358 -3.50996,1.53964 -4.52459,3.30291 l -6.83875,11.92749 a 6.9323404,6.9323404 0 0 0 2.52592,9.42687 l 11.88628,6.91014 c 1.76033,1.01973 4.4017,0.91975 5.57202,0.60616 0.11481,-0.022 32.51141,-8.71141 32.51141,-8.71141 4.43995,-1.18968 7.07678,-5.76267 5.88709,-10.20263 l -4.30936,-16.08276 a 8.3271356,8.3271356 0 0 0 -10.19862,-5.88818 z"
     id="path60915"
     style="fill:#756aae;fill-opacity:1;stroke-width:4.16356" /><path
     fill="#292f33"
     d="m 867.99366,208.04968 a 11.727842,11.727842 0 0 1 -8.29284,14.36361 l -79.29758,21.24773 a 11.727842,11.727842 0 0 1 -14.36362,-8.29284 L 744.7919,156.07061 a 11.727842,11.727842 0 0 1 8.29284,-14.36361 l 79.29758,-21.24773 a 11.727842,11.727842 0 0 1 14.36362,8.29284 z"
     id="path62398"
     style="fill:#263540;fill-opacity:1;stroke-width:2.93196" /><path
     fill="#ffd983"
     d="m 851.70569,169.91858 c 6.70594,25.02689 -8.14447,50.74854 -33.17135,57.45447 -25.02405,6.70518 -50.74852,-8.14447 -57.45446,-33.17136 -6.70517,-25.02404 8.1473,-50.74927 33.17135,-57.45444 25.02688,-6.70594 50.74929,8.14728 57.45446,33.17133 z m -47.33676,4.58846 a 7.819544,7.819544 0 1 0 4.04769,15.1062 7.819544,7.819544 0 0 0 -4.04769,-15.1062 z"
     id="path62400"
     style="stroke-width:2.93196" /><path
     fill="#ffac33"
     d="m 794.17643,183.92205 a 12.358214,12.358214 0 0 1 1.45876,-8.07041 l -25.35612,-14.64177 a 41.569339,41.569339 0 0 0 -5.1003,27.12797 z m 24.4327,-3.72382 a 12.378738,12.378738 0 0 1 -1.4616,8.07117 l 25.35897,14.64101 a 41.569339,41.569339 0 0 0 5.1003,-27.12797 z"
     id="path62402"
     style="stroke-width:2.93196" /><path
     fill="#ffe8b6"
     d="m 810.89983,193.56773 10.69011,27.3104 a 41.560542,41.560542 0 0 0 20.91297,-17.96979 l -25.35898,-14.64102 a 12.343554,12.343554 0 0 1 -6.2441,5.30041 z m -8.93631,-23.04209 -10.52081,-27.39217 a 41.58693,41.58693 0 0 0 -21.16648,18.07716 l 25.35896,14.64101 a 12.361146,12.361146 0 0 1 6.32833,-5.326 z"
     id="path62404"
     style="stroke-width:2.93196" /><path
     fill="#f5f8fa"
     d="m 859.64634,176.89706 a 5.8639214,5.8639214 0 0 1 -4.14641,7.18181 l -31.15262,8.34732 a 5.8639214,5.8639214 0 0 1 -7.18182,-4.14642 l -4.55308,-16.99234 a 5.8639214,5.8639214 0 0 1 4.14642,-7.18182 l 31.15262,-8.34732 a 5.8639214,5.8639214 0 0 1 7.1818,4.14643 z"
     id="path62406"
     style="stroke-width:2.93196" /><circle
     cx="906.2243"
     cy="396.62061"
     fill="#f4900c"
     id="circle65021"
     style="stroke-width:2.85517"
     transform="rotate(15)"
     r="48.537861" /><circle
     cx="906.2243"
     cy="390.91025"
     fill="#ffcc4d"
     id="circle65023"
     style="stroke-width:2.85517"
     transform="rotate(15)"
     r="48.537861" /><circle
     cx="906.2243"
     cy="393.76541"
     fill="#ffe8b6"
     id="circle65025"
     style="stroke-width:2.85517"
     transform="rotate(15)"
     r="39.972359" /><circle
     cx="906.2243"
     cy="390.91025"
     fill="#ffac33"
     id="circle65027"
     style="stroke-width:2.85517"
     transform="rotate(15)"
     r="39.972359" /><path
     fill="#ffe8b6"
     d="m 755.38726,588.94445 c 0.40273,-1.50304 2.03929,-1.70891 2.03929,-1.70891 l 24.46078,-4.38253 19.19922,16.0812 c 0,0 1.42117,0.74142 0.94453,2.52025 l -0.47368,1.7678 -46.64678,-12.49896 z"
     id="path65029"
     style="stroke-width:2.85517" /><path
     fill="#f4900c"
     d="m 799.11471,606.51385 c 0.43156,-1.61061 -0.61163,-3.28827 -2.32702,-3.74791 l -37.70851,-10.10395 c -1.71815,-0.46038 -3.26461,0.52338 -3.69617,2.13398 -0.29338,1.09488 0.0165,2.18884 0.77906,2.92817 l -0.49216,1.83676 5.83017,1.56219 0.39092,-1.45894 5.83015,1.56219 -0.39092,1.45894 5.83016,1.56218 0.39092,-1.45894 5.83016,1.56219 -0.39093,1.45894 5.83016,1.56218 0.39091,-1.45893 5.83018,1.56218 -0.39091,1.45894 5.83291,1.56293 0.51211,-1.91122 c 1.01316,-0.28423 1.84095,-1.03491 2.11881,-2.07188 z m -3.87864,31.96026 a 2.2641484,2.2641484 0 0 1 -2.773,1.60099 l -48.10295,-12.88915 a 2.2641529,2.2641529 0 1 1 1.17202,-4.374 l 48.10571,12.88988 c 1.20518,0.32293 1.92189,1.56433 1.59822,2.77228 z"
     id="path65031"
     style="stroke-width:2.85517" /><path
     fill="#f4900c"
     d="m 801.04088,605.15001 a 1.5103841,1.5103841 0 0 1 -1.84987,1.068 l -43.73169,-11.71786 a 1.5132393,1.5132393 0 0 1 0.78183,-2.91784 l 43.72923,11.72709 a 1.5046736,1.5046736 0 0 1 1.07023,1.84156 z m -39.81145,-8.85251 32.07138,8.59349 -0.87642,3.27084 -32.07138,-8.59351 z"
     id="path65033"
     style="stroke-width:2.85517" /><path
     fill="#ffd983"
     d="m 756.76273,618.79207 c -0.43156,1.6106 -1.65259,2.68157 -2.7254,2.39411 l -1.94431,-0.52097 c -1.07282,-0.28746 -1.59477,-1.82546 -1.1632,-3.43607 l 5.9221,-22.10163 c 0.43157,-1.61061 1.65259,-2.68158 2.72542,-2.39412 l 1.9443,0.52097 c 1.07281,0.28746 1.59476,1.82547 1.1632,3.43608 z m 34.98647,9.37459 c -0.43156,1.61062 -1.64984,2.68232 -2.72541,2.39412 l -1.94432,-0.52098 c -1.07279,-0.28745 -1.59475,-1.82545 -1.16319,-3.43607 l 5.92212,-22.10162 c 0.43155,-1.61061 1.64982,-2.68232 2.72539,-2.39413 l 1.94431,0.52098 c 1.07282,0.28746 1.59478,1.82546 1.16322,3.43607 z m -23.3234,-6.24948 c -0.43155,1.6106 -1.65257,2.68157 -2.7254,2.39411 l -1.9443,-0.52096 c -1.07282,-0.28747 -1.59478,-1.82547 -1.16321,-3.43608 l 5.92212,-22.10163 c 0.43156,-1.6106 1.65258,-2.68158 2.72539,-2.39413 l 1.9443,0.52098 c 1.07283,0.28747 1.59478,1.82547 1.16322,3.43608 z m 11.66031,3.12437 c -0.43157,1.61061 -1.65258,2.68158 -2.7254,2.39411 l -1.94154,-0.52023 c -1.07281,-0.28745 -1.59477,-1.82546 -1.16321,-3.43607 l 5.92212,-22.10163 c 0.43155,-1.6106 1.65259,-2.68157 2.72539,-2.39412 l 1.94155,0.52024 c 1.07281,0.28746 1.59477,1.82546 1.16321,3.43606 z"
     id="path65035"
     style="stroke-width:2.85517" /><path
     fill="#ffcc4d"
     d="m 792.81793,630.01376 c -0.43156,1.6106 -2.08558,2.56554 -3.69617,2.13398 l -37.90155,-10.15569 a 3.0179133,3.0179133 0 1 1 1.56219,-5.83016 l 37.90154,10.1557 c 1.60784,0.43081 2.56556,2.08556 2.13399,3.69617 z"
     id="path65037"
     style="stroke-width:2.85517" /><path
     fill="#ffd983"
     d="m 794.95191,633.70991 c -0.43157,1.61062 -2.08556,2.56556 -3.69617,2.134 L 747.52129,624.1253 a 3.0179128,3.0179128 0 1 1 1.56218,-5.83015 l 43.73169,11.71787 c 1.61062,0.43156 2.56831,2.0863 2.13675,3.69689 z"
     id="path65039"
     style="stroke-width:2.85517" /><path
     fill="#ffd983"
     d="m 795.82208,636.2871 a 2.2641484,2.2641484 0 0 1 -2.77301,1.601 l -48.10294,-12.88915 a 2.2641529,2.2641529 0 1 1 1.17201,-4.374 l 48.10571,12.88988 c 1.20519,0.32293 1.92189,1.56432 1.59823,2.77227 z"
     id="path65041"
     style="stroke-width:2.85517" /><path
     fill="#ffcc4d"
     d="m 799.52115,604.99701 c 0.43155,-1.61059 -0.61163,-3.28825 -2.32703,-3.74789 l -37.70851,-10.10396 c -1.71815,-0.46038 -3.26461,0.52338 -3.69617,2.13397 -0.29337,1.09489 0.0165,2.18885 0.77906,2.92818 l -0.49215,1.83675 5.83016,1.5622 0.39093,-1.45894 5.83014,1.56219 -0.39091,1.45892 5.83016,1.5622 0.39092,-1.45894 5.83015,1.56219 -0.39092,1.45893 5.83015,1.56218 0.39093,-1.45894 5.83016,1.5622 -0.39091,1.45894 5.83291,1.56293 0.5121,-1.91122 c 1.01318,-0.28424 1.84097,-1.03491 2.11883,-2.07189 z"
     id="path65043"
     style="stroke-width:2.85517" /><path
     fill="#ffd983"
     d="m 754.9387,590.6185 c 0.40274,-1.50305 2.03929,-1.70893 2.03929,-1.70893 l 24.46078,-4.38253 19.19923,16.08119 c 0,0 1.42117,0.74143 0.94454,2.52026 l -0.21505,0.80253 -46.64679,-12.49896 z"
     id="path65045"
     style="stroke-width:2.85517" /><path
     fill="#ffac33"
     d="m 780.56768,588.26338 c 0,0 -16.94413,3.05943 -18.61586,3.29726 -1.67375,0.23432 -1.45263,1.41682 -0.44806,1.68599 l 33.01184,8.84549 c 1.54992,0.41531 1.50014,-0.86612 0.44167,-1.8355 -1.05929,-0.96663 -14.38877,-11.99301 -14.38877,-11.99301 z"
     id="path65047"
     style="stroke-width:2.85517" /><path
     fill="#ffd983"
     d="m 801.36823,603.92829 a 1.5103841,1.5103841 0 0 1 -1.84985,1.06798 L 755.78669,593.2784 a 1.5132393,1.5132393 0 0 1 0.78183,-2.91783 l 43.72923,11.72709 a 1.5046736,1.5046736 0 0 1 1.07023,1.84157 z"
     id="path65049"
     style="stroke-width:2.85517" /><path
     fill="#a6d388"
     d="m 424.20354,391.95475 c 22.36091,22.36087 73.71145,53.46334 131.91851,-0.31268 -32.90255,-6.32946 -38.69155,-48.19249 -61.05691,-70.54891 -22.36088,-22.36534 -53.56161,-27.4218 -75.92697,-5.0609 -22.36087,22.36089 -17.29995,53.55714 5.06537,75.92249 z"
     id="path68813"
     style="stroke-width:4.46683" /><path
     fill="#77b255"
     d="m 505.87038,397.58294 c 27.37264,7.29878 47.60734,-3.29651 49.47445,-5.16365 0,0 -16.91135,7.82141 -46.27174,-6.593 4.25241,-5.41381 17.21511,-12.994 17.21511,-12.994 -2.47015,-1.5455 -18.21568,-1.00503 -28.96732,6.38309 a 165.39732,165.39732 0 0 1 -16.4066,-11.94873 l 3.75211,-3.89061 c 14.51716,-15.11569 31.01758,-11.54226 31.01758,-11.54226 -2.84982,-2.73813 -25.00971,-15.3703 -42.80552,3.12678 l -2.73815,2.84985 a 244.45551,244.45551 0 0 1 -5.78004,-5.58354 l -8.26363,-8.2636 4.7527,-4.75717 c 14.83428,-14.82982 36.74402,-15.41497 36.74402,-15.41497 -2.79621,-2.8007 -30.65575,-11.83261 -48.79551,6.30712 l -3.28756,3.28312 -37.03886,-37.04778 c -2.79622,-2.80071 -7.55786,-2.56843 -10.34961,0.22334 -2.79622,2.79622 -3.02403,7.5534 -0.22781,10.34962 l 37.04333,37.04331 -0.26355,0.26354 c -18.13977,18.14424 -10.60868,47.50014 -7.80801,50.30082 0,0 2.09047,-23.41505 16.92477,-38.24488 l 1.72865,-1.73311 15.63835,15.64278 c 0.2546,0.25461 0.50475,0.47349 0.75935,0.72809 -10.83203,21.42733 5.48973,46.1869 8.74603,48.17015 0,0 -6.54389,-21.09677 2.14407,-38.57096 6.81637,5.33786 13.4898,9.358 19.90862,12.30609 0.37075,13.36917 12.09167,25.46085 14.93703,26.49269 0,0 -4.06927,-13.41385 -2.38528,-20.04262 z"
     id="path68815"
     style="stroke-width:4.46683" /><path
     fill="#5dadec"
     d="m 494.25218,309.09528 a 4.4712841,4.4712841 0 0 1 -1.67505,-8.60754 c 0.74149,-0.30376 17.93873,-7.58466 19.72546,-27.529 a 4.4668173,4.4668173 0 1 1 8.8979,0.79509 c -2.28701,25.50999 -24.34861,34.64015 -25.28664,35.01538 a 4.3685473,4.3685473 0 0 1 -1.66167,0.32607 z m 22.3341,17.86727 a 4.4668173,4.4668173 0 0 1 -1.49193,-8.67455 c 0.83978,-0.30374 20.21236,-7.6427 24.03149,-36.5743 a 4.4221492,4.4221492 0 0 1 5.01177,-3.84146 4.4578835,4.4578835 0 0 1 3.84145,5.01175 c -4.56062,34.61786 -28.89138,43.47554 -29.92321,43.8329 -0.48688,0.16528 -0.98271,0.24566 -1.46957,0.24566 z m 13.40492,26.80091 a 4.4712841,4.4712841 0 0 1 -2.15748,-8.37975 c 0.12066,-0.0669 12.28822,-6.86103 16.08499,-15.71426 a 4.4668173,4.4668173 0 0 1 8.20555,3.51985 c -5.01623,11.70305 -19.3815,19.68972 -19.98898,20.02476 a 4.4802176,4.4802176 0 0 1 -2.14408,0.5494 z"
     id="path68817"
     style="stroke-width:4.46683" /><path
     fill="#3e721d"
     d="m 343.05931,108.66355 a 2.79905,2.79905 0 0 1 -2.72001,-0.73473 L 323.80242,92.104373 c -1.09,-1.098764 -1.23568,-2.801894 -0.13764,-3.894604 l 11.254,-11.726283 c 0.358,-0.354358 1.22321,-0.809761 1.67833,-0.931713 0.94277,-0.25261 1.96424,0.04859 2.69717,0.790071 l 12.13521,11.620615 2.0645,5.927634 c 1.08999,1.09878 -1.73585,3.90299 -2.83732,4.99371 l -6.35484,9.063387 a 2.7541755,2.7541755 0 0 1 -1.24248,0.71621 z"
     id="path71199"
     style="stroke-width:2.80466" /><path
     fill="#77b255"
     d="m 326.27065,121.87285 a 2.8046594,2.8046594 0 0 1 -3.43499,-1.98318 l -4.3554,-16.25457 a 2.8046594,2.8046594 0 0 1 1.98319,-3.43499 l 27.09093,-7.258997 c 5.01182,-1.342914 2.90627,-5.950044 2.90627,-5.950044 0,0 1.29383,1.28514 1.48848,1.49141 1.33156,1.42601 2.60033,3.809624 1.91047,6.761604 l -3.92443,18.827377 c -0.18307,0.88817 -0.96504,1.71908 -1.99178,1.99419 z"
     id="path71201"
     style="stroke-width:2.80466" /><path
     fill="#77b255"
     d="m 325.73925,130.72603 a 2.8046594,2.8046594 0 0 1 -2.12802,-0.28055 l -20.60995,-11.89917 a 2.8018547,2.8018547 0 0 1 -1.02642,-3.83065 l 11.89916,-20.609947 a 2.8046594,2.8046594 0 0 1 5.13763,0.6762 l 8.7108,32.509117 a 2.8018547,2.8018547 0 0 1 -1.9832,3.435 z"
     id="path71203"
     style="stroke-width:2.80466" /><path
     fill="#3e721d"
     d="m 298.91583,45.866406 a 2.8046594,2.8046594 0 0 1 0.58251,2.759128 l -6.5924,21.917382 c -0.48476,1.474263 -1.9364,2.374262 -3.40796,1.888771 l -15.55646,-4.699235 a 4.9922937,4.9922937 0 0 1 -1.59365,-1.071241 2.7934407,2.7934407 0 0 1 -0.52272,-2.763538 l 4.84132,-16.088155 4.3439,-4.529203 c 0.48477,-1.474263 4.2652,-0.228227 5.74018,0.259245 l 10.9575,1.547092 a 2.79905,2.79905 0 0 1 1.20778,0.779754 z"
     id="path71205"
     style="stroke-width:2.80466" /><path
     fill="#77b255"
     d="m 318.30621,54.828701 a 2.8046594,2.8046594 0 0 1 -0.20682,3.963657 L 305.59123,70.05331 a 2.8046594,2.8046594 0 0 1 -3.95824,-0.208258 L 282.86053,49.004064 c -3.46994,-3.858263 -6.61977,0.110007 -6.61977,0.110007 0,0 0.55727,-1.734684 0.65337,-2.004362 0.66717,-1.833821 2.21245,-4.042303 5.15622,-4.770107 l 18.56137,-5.05474 c 0.87774,-0.235191 1.96951,0.07912 2.68355,0.869216 z"
     id="path71207"
     style="stroke-width:2.80466" /><path
     fill="#77b255"
     d="m 326.43638,51.285548 a 2.8046594,2.8046594 0 0 1 0.71566,2.020767 l -1.2418,23.767678 a 2.8046594,2.8046594 0 0 1 -2.94742,2.653866 l -23.76641,-1.24794 a 2.8074641,2.8074641 0 0 1 -2.50225,-1.861466 2.8046594,2.8046594 0 0 1 0.77036,-3.019993 l 25.0109,-22.520454 a 2.7934407,2.7934407 0 0 1 3.96096,0.207542 z"
     id="path71209"
     style="stroke-width:2.80466" /><path
     fill="#3e721d"
     d="m 267.69095,115.9142 a 2.7934407,2.7934407 0 0 1 2.04171,-1.93789 l 22.11254,-5.91051 c 1.51045,-0.35536 3.03834,0.4054 3.40113,1.91097 l 4.16868,15.70935 c 0.1171,0.49127 0.0574,1.47125 -0.0752,1.9191 a 2.7934407,2.7934407 0 0 1 -2.07915,1.89568 l -16.23327,4.32641 -6.13894,-1.31384 c -1.50505,0.35392 -2.43141,-3.51515 -2.79346,-5.01804 l -4.44041,-10.14583 a 2.7766128,2.7766128 0 0 1 0.0364,-1.43542 z"
     id="path71211"
     style="stroke-width:2.80466" /><path
     fill="#77b255"
     d="m 265.13265,94.706583 a 2.8046594,2.8046594 0 0 1 3.47912,-1.90494 l 16.15089,4.72871 a 2.8018547,2.8018547 0 0 1 1.90493,3.479117 l -7.8778,26.91629 c -1.45381,4.97722 3.57569,5.57499 3.57569,5.57499 0,0 -1.77107,0.43394 -2.04906,0.49094 -1.9131,0.40232 -4.60646,0.24417 -6.77154,-1.87606 l -14.0479,-13.13481 c -0.66287,-0.62088 -0.96644,-1.72132 -0.6679,-2.74206 z"
     id="path71213"
     style="stroke-width:2.80466" /><path
     fill="#77b255"
     d="m 257.84367,89.653279 c 0.20581,-0.70558 0.68007,-1.30883 1.34464,-1.67853 l 20.88033,-11.419491 a 2.79905,2.79905 0 0 1 3.80541,1.111522 l 11.42147,20.876883 a 2.8102687,2.8102687 0 0 1 -3.25001,4.038677 l -32.29419,-9.450737 a 2.8074641,2.8074641 0 0 1 -1.90764,-3.478394 z"
     id="path71215"
     style="stroke-width:2.80466" /><path
     fill="#31373d"
     d="m 39.276458,577.34503 c 0,0 -11.34912,0 -11.34912,-11.34912 v -79.44386 c 0,0 0,-11.34912 11.34912,-11.34912 h 73.769302 c 2.83728,0 5.67456,2.83729 5.67456,2.83729 l 8.51185,8.51183 c 0,0 2.83727,2.83729 2.83727,5.67456 v 73.7693 c 0,0 0,11.34912 -11.34912,11.34912 z"
     id="path71958"
     style="stroke-width:2.83729" /><path
     fill="#55acee"
     d="m 42.113744,529.11127 v -2.83729 c 0,0 0,-5.67456 5.67456,-5.67456 H 107.3712 c 5.67456,0 5.67456,5.67456 5.67456,5.67456 v 2.83729 z"
     id="path71960"
     style="stroke-width:2.83729" /><path
     fill="#e1e8ed"
     d="m 42.113744,566.05549 v -36.94422 h 70.932016 v 36.88464 c 0,0 0,5.67456 -5.67456,5.67456 H 47.788304 c -5.67456,0 -5.67456,-5.61498 -5.67456,-5.61498 z m 14.186405,-82.34071 c 0,0 0,-2.83729 2.837275,-2.83729 h 51.071056 c 2.97347,0 2.83728,2.83729 2.83728,2.83729 v 28.3728 c 0,0 0,2.83728 -2.83728,2.83728 H 59.137424 c 0,0 -2.837275,0 -2.837275,-2.83728 z m 34.047365,28.3728 h 14.186406 v -28.3728 H 90.347514 Z"
     id="path71962"
     style="stroke-width:2.83729" /><path
     fill="#bdddf4"
     d="m 81.483043,274.01366 c -37.76831,0 -68.386434,23.81366 -68.386434,53.18947 0,16.59509 9.779262,31.41215 25.090235,41.16483 -1.990796,8.77245 -6.629688,21.78487 -17.491748,34.82008 21.87608,-3.64725 35.861107,-14.28895 44.51199,-24.37595 5.227757,0.9954 10.656887,1.58048 16.275957,1.58048 37.768317,0 68.386467,-23.81367 68.386467,-53.18944 0,-29.37581 -30.61815,-53.18947 -68.386467,-53.18947 z"
     id="path81437"
     style="stroke-width:3.79926" /><circle
     cx="81.482979"
     cy="327.20325"
     r="7.5984941"
     fill="#2a6797"
     id="circle81439"
     style="stroke-width:3.79926" /><circle
     cx="111.87704"
     cy="327.20325"
     r="7.5984941"
     fill="#2a6797"
     id="circle81441"
     style="stroke-width:3.79926" /><circle
     cx="51.089054"
     cy="327.20325"
     r="7.5984941"
     fill="#2a6797"
     id="circle81443"
     style="stroke-width:3.79926" /><g
     fill="none"
     id="g87609"
     transform="matrix(3.3554664,0.8990945,-0.8990945,3.3554664,642.80901,657.40329)"><path
       fill="#635994"
       d="m 9,3 h 1 c 0.55,0 1,0.45 1,1 V 5.43 C 11,5.74 10.74,6 10.43,6 H 9 C 8.45,6 8,5.55 8,5 V 4 C 8,3.45 8.45,3 9,3 Z m 2.99,26.03 H 13 c 0.55,0 1,-0.45 1,-1 v -1 c 0,-0.55 -0.45,-1 -1,-1 H 10.57 C 10.26,26.03 10,26.29 10,26.6 v 0.44 c 0,1.1 0.89,1.99 1.99,1.99 z m 6.01,-2 v 1 c 0,0.55 0.45,1 1,1 h 1.03 c 1.09,0 1.97,-0.88 1.97,-1.97 V 26.6 A 0.57,0.57 0 0 0 21.43,26.03 H 19 c -0.55,0 -1,0.45 -1,1 z M 24,5 V 4 C 24,3.45 23.55,3 23,3 H 22 C 21.45,3 21,3.45 21,4 V 5.43 C 21,5.74 21.26,6 21.57,6 H 23 c 0.55,0 1,-0.45 1,-1 z m 4,6.03 c 0,-0.55 0.45,-1 1,-1 0.55,0 1,0.45 1,1 v 4 c 0,0.55 -0.45,1 -1,1 H 28.57 A 0.57,0.57 0 0 0 28,16.6 v 0.46 c 0,1.09 -0.88,1.97 -1.97,1.97 H 25.57 A 0.57,0.57 0 0 0 25,19.6 v 4.44 c 0,1.1 -0.89,1.99 -1.99,1.99 H 22.57 A 0.57,0.57 0 0 1 22,25.46 V 22.6 A 0.57,0.57 0 0 0 21.43,22.03 H 10.57 A 0.57,0.57 0 0 0 10,22.6 v 2.86 c 0,0.31 -0.25,0.57 -0.57,0.57 H 9 c -1.1,0 -2,-0.9 -2,-2 V 19.6 C 7,19.29 6.74,19.03 6.43,19.03 H 6 c -1.1,0 -2,-0.9 -2,-2 V 16.6 C 4,16.29 3.74,16.03 3.43,16.03 H 3 c -0.55,0 -1,-0.45 -1,-1 v -4 c 0,-0.55 0.45,-1 1,-1 h 0.03 c 0.55,0 1,0.45 1,1 v 1.43 c 0,0.32 0.25,0.57 0.57,0.57 L 6.4,13.02 C 6.7,13.01 6.96,12.8 7,12.51 7.24,10.7 8.71,9.29 10.53,9.06 10.8,9.03 11,8.78 11,8.5 V 6.57 C 11,6.26 11.26,6 11.58,6 h 0.3 C 13.05,6 14,6.95 14,8.12 v 0.34 c 0,0.32 0.26,0.57 0.57,0.57 h 2.86 C 17.74,9.03 18,8.78 18,8.46 V 8.07 C 18,6.93 18.93,6 20.07,6 h 0.36 C 20.74,6 21,6.26 21,6.57 V 8.5 c 0,0.28 0.2,0.53 0.47,0.56 1.82,0.22 3.27,1.64 3.5,3.46 0.04,0.3 0.3,0.51 0.6,0.51 h 1.86 c 0.31,0 0.57,-0.25 0.57,-0.57 z"
       id="path87605" /><path
       fill="#402a32"
       d="M 10,15.982 C 10,16.547 10.445,17 11,17 a 1,1 0 0 0 1,-1.018 V 14.018 C 12,13.453 11.554,13 11,13 c -0.555,0 -1,0.453 -1,1.018 z m 10,0 c 0,0.565 0.445,1.018 1,1.018 0.555,0 1,-0.463 1,-1.018 V 14.018 C 22,13.453 21.555,13 21,13 c -0.555,0 -1,0.453 -1,1.018 z"
       id="path87607" /></g></svg>
