<?xml version="1.0" encoding="UTF-8" standalone="no"?>
<svg
   data-name="Layer 1"
   width="1145"
   height="730.47"
   viewBox="0 0 1145 730.47"
   version="1.1"
   id="svg145"
   sodipodi:docname="undraw-sunset.svg"
   inkscape:version="1.1.2 (0a00cf5339, 2022-02-04)"
   xmlns:inkscape="http://www.inkscape.org/namespaces/inkscape"
   xmlns:sodipodi="http://sodipodi.sourceforge.net/DTD/sodipodi-0.dtd"
   xmlns="http://www.w3.org/2000/svg"
   xmlns:svg="http://www.w3.org/2000/svg"
   xmlns:rdf="http://www.w3.org/1999/02/22-rdf-syntax-ns#"
   xmlns:cc="http://creativecommons.org/ns#"
   xmlns:dc="http://purl.org/dc/elements/1.1/">
  <sodipodi:namedview
     id="namedview147"
     pagecolor="#ffffff"
     bordercolor="#cccccc"
     borderopacity="1"
     inkscape:pageshadow="0"
     inkscape:pageopacity="1"
     inkscape:pagecheckerboard="0"
     showgrid="false"
     inkscape:zoom="0.26660918"
     inkscape:cx="-900.19406"
     inkscape:cy="1277.1503"
     inkscape:window-width="1920"
     inkscape:window-height="947"
     inkscape:window-x="0"
     inkscape:window-y="0"
     inkscape:window-maximized="1"
     inkscape:current-layer="svg145" />
  <defs
     id="defs9">
    <linearGradient
       id="fa292c7b-a70d-4357-8a8c-9ccc28a8cf22-1127"
       x1="824.06"
       y1="721.01"
       x2="891.52"
       y2="721.01"
       gradientTransform="translate(215.37 -198.84) rotate(14.97)"
       gradientUnits="userSpaceOnUse">
      <stop
         offset="0"
         stop-color="gray"
         stop-opacity="0.25"
         id="stop2" />
      <stop
         offset="0.54"
         stop-color="gray"
         stop-opacity="0.12"
         id="stop4" />
      <stop
         offset="1"
         stop-color="gray"
         stop-opacity="0.1"
         id="stop6" />
    </linearGradient>
  </defs>
  <title
     id="title11">japan</title>
  <path
     d="M1172.5,552.51a250,250,0,0,1-6.85,58.43,233.82,233.82,0,0,1-15.77,45c-1.13,2.41-2.29,4.78-3.5,7.12a150,150,0,0,1-23.32,80.62c-26.26,41.36-72.13,68.77-124.32,68.77H245.67a185.45,185.45,0,0,1-98.17-28,189.9,189.9,0,0,1-59.59-58.73A190.94,190.94,0,0,1,57.62,622.23q-4.8-8.7-8.88-18A238.42,238.42,0,0,1,31,541.67,253.21,253.21,0,0,1,28.5,506c0-66.94,26-126.61,66.65-165.36,30.25-28.86,68.61-46.11,110.33-46.11,3.46,0,6.89.13,10.3.36q2.82-5.65,5.85-11.2c55.7-102,165-176.43,295.22-194a444.64,444.64,0,0,1,59.39-4q18.69,0,36.94,1.53h0c81.86,6.78,156.45,35.92,216.06,80.5,1.79,1.33,3.57,2.69,5.33,4.05,25.44-16.91,54.73-26.56,85.91-26.56a150.08,150.08,0,0,1,15.93.85c76.49,8.15,139,74.46,156.28,161.67a251.39,251.39,0,0,1,4.77,49q0,11.19-1,22.11a184.34,184.34,0,0,1,16.21,15.23C1149.39,432.81,1172.5,489.43,1172.5,552.51Z"
     transform="translate(-27.5 -84.77)"
     fill="#26d944"
     opacity="0.1"
     id="path13" />
  <path
     d="M146.5,783.54q6.51,4.05,13.38,7.56L611.5,520.48l6,11-263,280H421l219.47-245,8,7-53.41,238h75l52.44-205h19l74.37,205h72l-53.41-238,8-7,210,234.41a147.26,147.26,0,0,0,41.86-25.81L865.5,531.48l6-11,272.35,163.2a153.29,153.29,0,0,0,1.53-21.57c1.21-2.34,2.37-4.71,3.5-7.12a233.82,233.82,0,0,0,15.77-45c.84-3.48,1.58-7,2.27-10.57L871.5,487.48v-27l291.21,25.08c-9.91-36.08-27.71-67.89-51-92.49l-.38-.39L871.5,440.48v-26l219-113.25c-9.62-43.25-30.43-81.05-58.49-108.71L842.5,404.11l-8-7,56.11-250a158.18,158.18,0,0,0-57,23.75c-1.76-1.36-3.54-2.72-5.33-4.05q-5.91-4.42-12-8.63l-74.72,206h-19L652.79,91.56q-19.95-3.56-40.6-5.3h0q-16.7-1.38-33.77-1.49L648.5,397.11l-8,7L390.93,125.49c-53.61,25.35-99.87,61.42-135.23,105l355.8,184v26L96.15,337.77c-.67.62-1.34,1.24-2,1.87C53.53,378.39,27.5,438.06,27.5,505c0,1.93,0,3.86.07,5.77L611.5,460.48v27l-541.25,205a190.21,190.21,0,0,0,76.25,91.07Z"
     fill="#26d944"
     opacity="0.1"
     id="path15"
     transform="translate(-27.5 -84.77)" />
  <polygon
     points="828.48 727.74 739.48 727.74 713.79 484.88 713.41 481.37 713.41 481.36 711.23 460.72 800.26 460.09 802.99 460.07 803.18 462.05 828.48 727.74"
     fill="#26d944"
     opacity="0.1"
     id="polygon17" />
  <polygon
     points="715.19 483.45 713.79 484.88 474.62 727.74 352.75 727.74 655.7 413.58 713.41 481.36 715.19 483.45"
     fill="#26d944"
     opacity="0.1"
     id="polygon19" />
  <path
     d="M1106.63,768.49a146.44,146.44,0,0,1-106.81,46.24H246.75A186.25,186.25,0,0,1,117.1,762.27l1.08-.18c109.89-17.55,282.38-28.86,476.32-28.86,214.71,0,403.12,13.86,509.42,34.72C1104.83,768.12,1105.73,768.3,1106.63,768.49Z"
     transform="translate(-27.5 -84.77)"
     fill="#e8eaf2"
     id="path21" />
  <path
     d="M1106.63,769a146.44,146.44,0,0,1-106.81,46.24H246.75A186.25,186.25,0,0,1,117.1,762.77l1.08-.18C228.07,745,400.56,733.73,594.5,733.73c214.71,0,403.12,13.86,509.42,34.72C1104.83,768.62,1105.73,768.8,1106.63,769Z"
     transform="translate(-27.5 -84.77)"
     fill="#26d944"
     opacity="0.3"
     id="path23" />
  <circle
     cx="703"
     cy="400.53"
     fill="#f86d70"
     id="circle25"
     r="159"
     style="fill:#e9c762;fill-opacity:1" />
  <path
     d="M884,763.24l-8.13,29.93a26.52,26.52,0,0,1-25.59,19.57h-504a26.52,26.52,0,0,1-25.59-19.57l-8.13-29.93C305.48,737.16,324,710.53,351,709.32c.66,0,1.32-.05,2-.05H843.61c.67,0,1.33,0,2,.05C872.58,710.53,891.1,737.16,884,763.24Z"
     fill="#3f3d56"
     id="path27"
     transform="translate(-27.5 -84.77)" />
  <path
     d="M835.18,722.89c0,32.33-109.72,58.54-245.06,58.54s-245.06-26.21-245.06-58.54c0-4.7,2.31-9.26,6.67-13.62H828.51C832.86,713.63,835.18,718.19,835.18,722.89Z"
     opacity="0.1"
     id="path29"
     transform="translate(-27.5 -84.77)" />
  <path
     d="M901.89,589.62c0-23.88-21.95-43.24-49-43.24s-49,19.36-49,43.24c-27.06,0-49,19.37-49,43.25s21.95,43.25,49,43.25a53.88,53.88,0,0,0,24.51-5.8,54.67,54.67,0,0,0,49,0,53.88,53.88,0,0,0,24.51,5.8c27.07,0,49-19.37,49-43.25S929,589.62,901.89,589.62Z"
     transform="translate(-27.5 -84.77)"
     fill="#26d944"
     id="path31" />
  <path
     d="M901.89,589.62c0-23.88-21.95-43.24-49-43.24s-49,19.36-49,43.24c-27.06,0-49,19.37-49,43.25s21.95,43.25,49,43.25a53.88,53.88,0,0,0,24.51-5.8,54.67,54.67,0,0,0,49,0,53.88,53.88,0,0,0,24.51,5.8c27.07,0,49-19.37,49-43.25S929,589.62,901.89,589.62Z"
     transform="translate(-27.5 -84.77)"
     opacity="0.1"
     id="path33" />
  <path
     d="M786.07,370.75a48.89,48.89,0,0,0-3.24-17.55,49.11,49.11,0,0,0-16.4-95.4,49.11,49.11,0,0,0-96.87-11.42c-.45,0-.9,0-1.35,0a49.1,49.1,0,0,0-97.35-9.14,49.1,49.1,0,0,0-79.44,38.61A49.1,49.1,0,0,0,464.55,366a49.42,49.42,0,0,0-.95,9.65,49.11,49.11,0,1,0,24.55,91.63,49.11,49.11,0,0,0,49.11,0,49.09,49.09,0,0,0,58-6.58c.85,0,1.7.07,2.56.07a48.91,48.91,0,0,0,24.56-6.59,48.86,48.86,0,0,0,36.28,5.15,49.11,49.11,0,0,0,53.75,3,49.11,49.11,0,0,0,49.11,0,49.11,49.11,0,1,0,24.55-91.63Zm-224.26,4.91a48.85,48.85,0,0,0-.42-6.32c1.26-.59,2.5-1.21,3.7-1.91a46.63,46.63,0,0,0,6.11,3,50.26,50.26,0,0,0-6.82,5.31C563.53,375.68,562.67,375.66,561.81,375.66Z"
     transform="translate(-27.5 -84.77)"
     fill="#26d944"
     id="path35" />
  <path
     d="M763.7,506.07a44.25,44.25,0,0,0-88.49,0,44.25,44.25,0,1,0,22.12,82.56,44.18,44.18,0,0,0,44.25,0,44.24,44.24,0,1,0,22.12-82.56Z"
     transform="translate(-27.5 -84.77)"
     fill="#26d944"
     id="path37" />
  <path
     d="M763.7,506.07a44.25,44.25,0,0,0-88.49,0,44.25,44.25,0,1,0,22.12,82.56,44.18,44.18,0,0,0,44.25,0,44.24,44.24,0,1,0,22.12-82.56Z"
     transform="translate(-27.5 -84.77)"
     opacity="0.1"
     id="path39" />
  <path
     d="M786.07,370.75a48.89,48.89,0,0,0-3.24-17.55,49.11,49.11,0,0,0-16.4-95.4,49.11,49.11,0,0,0-96.87-11.42c-.45,0-.9,0-1.35,0a49.1,49.1,0,0,0-97.35-9.14,49.1,49.1,0,0,0-79.44,38.61A49.1,49.1,0,0,0,464.55,366a49.42,49.42,0,0,0-.95,9.65,49.11,49.11,0,1,0,24.55,91.63,49.11,49.11,0,0,0,49.11,0,49.09,49.09,0,0,0,58-6.58c.85,0,1.7.07,2.56.07a48.91,48.91,0,0,0,24.56-6.59,48.86,48.86,0,0,0,36.28,5.15,49.11,49.11,0,0,0,53.75,3,49.11,49.11,0,0,0,49.11,0,49.11,49.11,0,1,0,24.55-91.63Zm-224.26,4.91a48.85,48.85,0,0,0-.42-6.32c1.26-.59,2.5-1.21,3.7-1.91a46.63,46.63,0,0,0,6.11,3,50.26,50.26,0,0,0-6.82,5.31C563.53,375.68,562.67,375.66,561.81,375.66Z"
     transform="translate(-27.5 -84.77)"
     opacity="0.1"
     id="path41" />
  <path
     d="M748.79,612.2c-3.82-1.52-7.69-3.06-11.77-3.58-.41,0-.82-.08-1.24-.11,0-.42,0-.83.05-1.24.22-5,1.77-10.16,5.27-13.77s8.37-5.39,10.65-9.65A95.64,95.64,0,0,0,726.1,580c-2.21,0-4.56,0-6.41,1.26-2.27,1.47-3.25,4.25-4,6.87-2.3,8.68-3.85,17.18-6.48,25.65l-.69.16c-9.3,2-21,.45-25.27-7.92a101.84,101.84,0,0,1,4-12.42c5-12.45,12.66-23.64,20.23-34.73q7.35-10.79,14.72-21.56a210.19,210.19,0,0,0-22.38-5.43c-1.6-.3-3.41-.54-4.74.4a6.2,6.2,0,0,0-1.91,2.92c-7.22,17.72-16.07,37.11-18.58,56.59a45,45,0,0,0-4.33-2.06L647,579.81a8,8,0,0,1-3.24-2.06c-2.12-2.63,0-6.81,3.1-8.21s6.61-1,10-1.3,7.13-1.53,8.39-4.67c1.46-3.61-1.33-7.69-4.74-9.58s-7.42-2.42-11-4a19.55,19.55,0,0,1-10.86-13.73L633.1,536c7.32-7,14.91-13.71,23.63-18.86,4.21-2.49,8.67-4.6,12.59-7.53a37.46,37.46,0,0,0,14.4-34.19c-.5-3.76-1.57-7.65-.38-11.25,1-2.93,3.26-5.18,5.49-7.31l20.09-19.22a156.19,156.19,0,0,0-39-3.84c-3.32.1-6.75.32-9.72,1.82-5.42,2.74-8,8.94-10.12,14.63a85,85,0,0,0-3.91,12.34c-1.48,7.1-1.26,14.88-5.27,20.91-3.18,4.78-8.47,7.6-13.22,10.82a74.14,74.14,0,0,0-28.73,38.23c-.32,1-.86,2.28-1.48,3.71-11.77,1-23.3,3.24-34.19,7.82-13.69,5.76-25.64,14.91-37.37,24-12.92,10-26.51,21.19-31.05,36.91-5.05,17.45,2.74,36.59,15.21,49.8,10.2,10.79,23.14,18.39,36.19,25.22,8.53,4.46,9.95,3.55,17.44-2.45l20.14-16.14c5.75-4.6,11.6-9.32,15.51-15.56,5.39-8.59,6.72-19.5,13.25-27.27,8.94-10.65,27.17-11.54,37.12-1.83,2.86,2.8,5.35,6.46,9.25,7.39,1.9.46,4,.2,5.74,1,3.32,1.58,3.82,6,5,9.44,3.25,9.27,14.29,14.12,24,12.73s18.08-7.7,24.65-15c1.79-2,3.56-4.12,6-5.31a15.3,15.3,0,0,1,6.2-1.32A40.87,40.87,0,0,1,751,630.22c5.87,3,11,7.45,17.17,9.79,12.21,4.62,25.86.23,37.82-5Z"
     fill="#3f3d56"
     id="path43"
     transform="translate(-27.5 -84.77)" />
  <path
     d="M748.79,612.2c-3.82-1.52-7.69-3.06-11.77-3.58-.41,0-.82-.08-1.24-.11,0-.42,0-.83.05-1.24.22-5,1.77-10.16,5.27-13.77s8.37-5.39,10.65-9.65A95.64,95.64,0,0,0,726.1,580c-2.21,0-4.56,0-6.41,1.26-2.27,1.47-3.25,4.25-4,6.87-2.3,8.68-3.85,17.18-6.48,25.65l-.69.16c-9.3,2-21,.45-25.27-7.92a101.84,101.84,0,0,1,4-12.42c5-12.45,12.66-23.64,20.23-34.73q7.35-10.79,14.72-21.56a210.19,210.19,0,0,0-22.38-5.43c-1.6-.3-3.41-.54-4.74.4a6.2,6.2,0,0,0-1.91,2.92c-7.22,17.72-16.07,37.11-18.58,56.59a45,45,0,0,0-4.33-2.06L647,579.81a8,8,0,0,1-3.24-2.06c-2.12-2.63,0-6.81,3.1-8.21s6.61-1,10-1.3,7.13-1.53,8.39-4.67c1.46-3.61-1.33-7.69-4.74-9.58s-7.42-2.42-11-4a19.55,19.55,0,0,1-10.86-13.73L633.1,536c7.32-7,14.91-13.71,23.63-18.86,4.21-2.49,8.67-4.6,12.59-7.53a37.46,37.46,0,0,0,14.4-34.19c-.5-3.76-1.57-7.65-.38-11.25,1-2.93,3.26-5.18,5.49-7.31l20.09-19.22a156.19,156.19,0,0,0-39-3.84c-3.32.1-6.75.32-9.72,1.82-5.42,2.74-8,8.94-10.12,14.63a85,85,0,0,0-3.91,12.34c-1.48,7.1-1.26,14.88-5.27,20.91-3.18,4.78-8.47,7.6-13.22,10.82a74.14,74.14,0,0,0-28.73,38.23c-.32,1-.86,2.28-1.48,3.71-11.77,1-23.3,3.24-34.19,7.82-13.69,5.76-25.64,14.91-37.37,24-12.92,10-26.51,21.19-31.05,36.91-5.05,17.45,2.74,36.59,15.21,49.8,10.2,10.79,23.14,18.39,36.19,25.22,8.53,4.46,9.95,3.55,17.44-2.45l20.14-16.14c5.75-4.6,11.6-9.32,15.51-15.56,5.39-8.59,6.72-19.5,13.25-27.27,8.94-10.65,27.17-11.54,37.12-1.83,2.86,2.8,5.35,6.46,9.25,7.39,1.9.46,4,.2,5.74,1,3.32,1.58,3.82,6,5,9.44,3.25,9.27,14.29,14.12,24,12.73s18.08-7.7,24.65-15c1.79-2,3.56-4.12,6-5.31a15.3,15.3,0,0,1,6.2-1.32A40.87,40.87,0,0,1,751,630.22c5.87,3,11,7.45,17.17,9.79,12.21,4.62,25.86.23,37.82-5Z"
     opacity="0.1"
     id="path45"
     transform="translate(-27.5 -84.77)" />
  <path
     d="M585.35,489.61c0-24.59-25.9-44.51-57.86-44.51S469.63,465,469.63,489.61c-32,0-57.86,19.92-57.86,44.51s25.9,44.5,57.86,44.5a71.27,71.27,0,0,0,28.93-6,73.08,73.08,0,0,0,57.86,0,71.27,71.27,0,0,0,28.93,6c32,0,57.86-19.92,57.86-44.5S617.31,489.61,585.35,489.61Z"
     transform="translate(-27.5 -84.77)"
     fill="#26d944"
     id="path47" />
  <path
     d="M585.35,489.61c0-24.59-25.9-44.51-57.86-44.51S469.63,465,469.63,489.61c-32,0-57.86,19.92-57.86,44.51s25.9,44.5,57.86,44.5a71.27,71.27,0,0,0,28.93-6,73.08,73.08,0,0,0,57.86,0,71.27,71.27,0,0,0,28.93,6c32,0,57.86-19.92,57.86-44.5S617.31,489.61,585.35,489.61Z"
     transform="translate(-27.5 -84.77)"
     opacity="0.1"
     id="path49" />
  <path
     d="M709.44,741l-33.17-15.27c-2.66-1.23-5.61-2.76-6.44-5.58a12.16,12.16,0,0,1,0-4.62,37.91,37.91,0,0,0-4.93-22.82c-2.49-4.27-5.86-8.11-7.35-12.83-3.18-10,3-20.59,3.3-31.13.33-10.26-5-20.13-12.59-27.08-2.25-2.07-4.72-4-6.49-6.45-5.14-7.22-3-17-.56-25.63l.63-.58c.47-.46.12-2.43-.74-5.35A81.28,81.28,0,0,0,667.77,571c2.55-1.85,5-3.88,8-5.06,4.12-1.65,8.79-1.46,12.95-3,7.76-2.89,12.07-11,15.68-18.44,8.55-17.59,17.25-35.77,18.33-55.3a42.85,42.85,0,0,0-24.42-8.92c-1.48-.06-3.16,0-4.13,1.16a5.29,5.29,0,0,0-1,2.51,134.41,134.41,0,0,1-15.49,39.6,68.68,68.68,0,0,1-10.55,14.19c-5,5-11.14,8.73-17.18,12.44-5.08,3.11-11.88,6.14-17.65,9.71-4-10.28-7.65-19.66-7.18-21.1a82.19,82.19,0,0,0,.56-48.31c-1.16-3.92-2.64-7.79-3-11.87s.45-8.1.77-12.16c.63-8.05-.6-16.12-.55-24.2.06-10.94,2.46-21.72,4.85-32.4a82,82,0,0,0-20.15-1.08,7.79,7.79,0,0,0-3.79,1c-1.68,1.09-2.31,3.19-2.88,5.11-4.45,14.91-12.52,28.52-17.31,43.33s-5.82,32.16,3.09,44.92c3.17,4.53,7.6,8.63,8.3,14.11.37,2.9-.39,5.81-1.15,8.64-1.35,5.07,20.37,59.55,21.58,64.58,0,.14.08.26.11.39-.68.15-1.37.28-2.06.44a65.72,65.72,0,0,1-15.62,38.45A54.51,54.51,0,0,1,595.29,619c-.75-5.5-.68-11.17-2.39-16.45-2.56-7.88-8.74-13.92-14.14-20.19a128.52,128.52,0,0,1-22.69-38.19,93.28,93.28,0,0,1-12.5,3.67c-2.25.5-10,.51-11.22,2.52-1.88,3,6.52,16.95,8.18,20.16,5.85,11.29,15.71,20.11,21.5,31.43A101.55,101.55,0,0,1,568,617.54c3.16,10,6.32,20,8.74,30.16-2.9,3-5.19,6.66-7.68,10.07a89.71,89.71,0,0,1-34,28c-1.61.76-3.39,1.61-4.08,3.25a4.36,4.36,0,0,0-.26.87c-5.5-3.88-10.64-8.21-14.22-13.85-1.58-2.5-2.83-5.21-4.55-7.61-5.79-8.07-15.92-11.48-24.21-17-3.5-2.32-6.76-5.07-10.63-6.7-4.25-1.8-8.95-2.14-13.55-2.45-3.77-.26-18.23-3.27-20.09.1-2.64,4.77,5.73,11.74,9.08,13.42,5.57,2.79,11.94,3.5,17.76,5.71a53.72,53.72,0,0,1,14.47,8.84,21.94,21.94,0,0,1,4.9,5c1.44,2.25,2.11,4.9,3.32,7.28,3.88,7.63,12.27,11.12,19.78,15.61a16.67,16.67,0,0,0-5.79,1.31c-5.59,2.54-8.19,8.83-11.83,13.78-3.25,4.39-7.53,7.9-11.11,12s-6.56,9.23-6.29,14.68c.17,3.45,1.56,7.22-.27,10.15,4.21,1.82,9.39,4,13.95,4.55s9.5-.32,12.91-3.39a33.55,33.55,0,0,1,3.39-3.15c2.89-1.93,6.85-1.39,9.94.19s5.64,4.05,8.47,6.08a34.81,34.81,0,0,0,28.19,5.45c2-.48,4.87-.89,4.25-2.81A25.31,25.31,0,0,1,544,735a17.67,17.67,0,0,1,17.08,6.28c-2.78.12-4.62,3.86-3,6.14a33.14,33.14,0,0,0,26.76-14.52,14,14,0,0,1,19.29,13.68l14.46,7.14c2.27,1.12,4.68,2.27,7.21,2.1s5.11-2.21,4.92-4.73c-.22-2.89-3.69-5.84-1.79-8,3.4,1.52,6,4.52,9.49,5.83s8.63-.44,8.44-4.16a7.08,7.08,0,0,0-1.39-3.41,47.58,47.58,0,0,0-15.21-14.64c-.45-3.27,7-6.86,9.26-4.42l18.32,20.19a21.65,21.65,0,0,0,5,4.46c6.55,3.79,14.73,0,22.29,0,8.18,0,16.55,4.66,24.16,1.69,2-.77,4-2.66,3.43-4.72C712.27,742.43,710.78,741.66,709.44,741Z"
     fill="#3f3d56"
     id="path51"
     transform="translate(-27.5 -84.77)" />
  <path
     d="M758.94,364.82a40.61,40.61,0,0,0-2.7-14.59,40.85,40.85,0,0,0-13.64-79.35,40.85,40.85,0,0,0-80.57-9.5c-.37,0-.74,0-1.12,0a40.84,40.84,0,0,0-81-7.6,40.83,40.83,0,0,0-66.06,32.11,40.84,40.84,0,0,0-22.36,75,41.65,41.65,0,0,0-.79,8,40.85,40.85,0,1,0,20.42,76.21,40.8,40.8,0,0,0,40.85,0,40.79,40.79,0,0,0,48.23-5.47c.71,0,1.42.05,2.14.05a40.71,40.71,0,0,0,20.42-5.47A40.78,40.78,0,0,0,653,438.51a40.82,40.82,0,0,0,44.7,2.52,40.79,40.79,0,0,0,40.84,0,40.84,40.84,0,1,0,20.43-76.21Zm-186.52,4.09a41.33,41.33,0,0,0-.35-5.25c1-.5,2.08-1,3.07-1.59a42,42,0,0,0,5.09,2.48,41.11,41.11,0,0,0-5.68,4.41C573.85,368.93,573.13,368.91,572.42,368.91Z"
     transform="translate(-27.5 -84.77)"
     fill="#26d944"
     id="path53" />
  <path
     d="M897.8,590.82c0-22.55-20.72-40.84-46.29-40.84s-46.28,18.29-46.28,40.84c-25.57,0-46.29,18.29-46.29,40.85s20.72,40.84,46.29,40.84A50.81,50.81,0,0,0,828.37,667a51.62,51.62,0,0,0,46.29,0,50.81,50.81,0,0,0,23.14,5.48c25.57,0,46.29-18.28,46.29-40.84S923.37,590.82,897.8,590.82Z"
     transform="translate(-27.5 -84.77)"
     fill="#26d944"
     id="path55" />
  <path
     d="m 731.1,427.64 a 40.85,40.85 0 1 0 -81.69,0 40.84,40.84 0 1 0 20.42,76.22 40.85,40.85 0 0 0 40.84,0 40.84,40.84 0 1 0 20.43,-76.21 z"
     fill="#26d944"
     id="path57" />
  <path
     d="m 561.77913,409.81074 c 0,-24.34091 -25.65721,-44.06395 -57.29176,-44.06395 -31.63454,0 -57.29176,19.72304 -57.29176,44.06395 -31.63455,0 -57.28097,19.73382 -57.28097,44.06394 0,24.33012 25.64642,44.07474 57.28097,44.07474 a 70.508786,70.508786 0 0 0 28.64588,-5.9126 72.353775,72.353775 0 0 0 57.29176,0 70.508786,70.508786 0 0 0 28.64588,5.9126 c 31.63455,0 57.28097,-19.73383 57.28097,-44.07474 0,-24.34091 -25.64642,-44.06394 -57.28097,-44.06394 z"
     fill="#26d944"
     id="path59"
     style="stroke-width:1.07894" />
  <path
     d="M481.2,611.25a43.57,43.57,0,1,0-87.13,0,43.57,43.57,0,1,0,21.78,81.29,43.55,43.55,0,0,0,43.57,0,43.56,43.56,0,1,0,21.78-81.29Z"
     transform="translate(-27.5 -84.77)"
     fill="#26d944"
     id="path61" />
  <path
     d="M481.2,611.25a43.57,43.57,0,1,0-87.13,0,43.57,43.57,0,1,0,21.78,81.29,43.55,43.55,0,0,0,43.57,0,43.56,43.56,0,1,0,21.78-81.29Z"
     transform="translate(-27.5 -84.77)"
     opacity="0.1"
     id="path63" />
  <path
     d="M478.48,612.61a40.85,40.85,0,1,0-81.69,0,40.84,40.84,0,1,0,20.42,76.21,40.87,40.87,0,0,0,40.85,0,40.84,40.84,0,1,0,20.42-76.21Z"
     transform="translate(-27.5 -84.77)"
     fill="#26d944"
     id="path65" />
  <path
     d="M606.45,280.41a39.48,39.48,0,0,1,39.1,34A39.48,39.48,0,1,0,567,309a40.77,40.77,0,0,0,.38,5.45A39.49,39.49,0,0,1,606.45,280.41Z"
     transform="translate(-27.5 -84.77)"
     opacity="0.1"
     id="path67" />
  <path
     d="M687.52,350.9a39.49,39.49,0,0,1,21.34,47.25,39.48,39.48,0,1,0-69.15-37.73,40.08,40.08,0,0,0-1.92,5.11A39.48,39.48,0,0,1,687.52,350.9Z"
     transform="translate(-27.5 -84.77)"
     opacity="0.1"
     id="path69" />
  <path
     d="M571.8,380.85a39.49,39.49,0,0,1,21.34,47.25,40.85,40.85,0,0,0,2.62-4.79A39.48,39.48,0,0,0,524,390.37a40.08,40.08,0,0,0-1.92,5.11A39.48,39.48,0,0,1,571.8,380.85Z"
     transform="translate(-27.5 -84.77)"
     opacity="0.1"
     id="path71" />
  <path
     d="M530.7,507.33a23.65,23.65,0,0,1,4.16,30.77,24.07,24.07,0,0,0,2.33-2.3,23.65,23.65,0,0,0-35.56-31.19,23.28,23.28,0,0,0-2,2.61A23.65,23.65,0,0,1,530.7,507.33Z"
     transform="translate(-27.5 -84.77)"
     opacity="0.1"
     id="path73" />
  <path
     d="M902.37,616.25A23.63,23.63,0,0,1,906.54,647a24,24,0,0,0,2.32-2.3,23.64,23.64,0,1,0-35.55-31.18,23.18,23.18,0,0,0-2,2.6A23.64,23.64,0,0,1,902.37,616.25Z"
     transform="translate(-27.5 -84.77)"
     opacity="0.1"
     id="path75" />
  <path
     d="M438.93,615.91a23.64,23.64,0,0,1,31,2.29,22.94,22.94,0,0,0-1.77-2.75,23.65,23.65,0,0,0-37.86,28.34,24.23,24.23,0,0,0,2.13,2.47A23.65,23.65,0,0,1,438.93,615.91Z"
     transform="translate(-27.5 -84.77)"
     opacity="0.1"
     id="path77" />
  <path
     d="m 694.7,452.54 a 23.65,23.65 0 0 1 31,2.29 23.3,23.3 0 0 0 -1.77,-2.75 23.65,23.65 0 1 0 -37.86,28.34 23.24,23.24 0 0 0 2.14,2.48 23.66,23.66 0 0 1 6.49,-30.36 z"
     opacity="0.1"
     id="path79" />
  <path
     d="M671.05,704.39c-2.62-2-2.29-6.83-2.29-6.83s4.57-1.52,7.19.51,3.64,5.1,2.29,6.84S673.67,706.43,671.05,704.39Z"
     transform="translate(-27.5 -84.77)"
     fill="#26d944"
     id="path81" />
  <path
     d="M680.05,757.39c-2.62-2-2.29-6.83-2.29-6.83s4.57-1.52,7.19.51,3.64,5.1,2.29,6.84S682.67,759.43,680.05,757.39Z"
     transform="translate(-27.5 -84.77)"
     fill="#26d944"
     id="path83" />
  <path
     d="M671.05,762.39c-2.62-2-2.29-6.83-2.29-6.83s4.57-1.52,7.19.51,3.64,5.1,2.29,6.84S673.67,764.43,671.05,762.39Z"
     transform="translate(-27.5 -84.77)"
     fill="#26d944"
     id="path85" />
  <path
     d="M733.05,723.39c-2.62-2-2.29-6.83-2.29-6.83s4.57-1.52,7.19.51,3.64,5.1,2.29,6.84S735.67,725.43,733.05,723.39Z"
     transform="translate(-27.5 -84.77)"
     fill="#26d944"
     id="path87" />
  <path
     d="M475.37,568.75c2.05-2.6,6.86-2.22,6.86-2.22s1.46,4.59-.6,7.19-5.13,3.59-6.86,2.22S473.31,571.35,475.37,568.75Z"
     transform="translate(-27.5 -84.77)"
     fill="#26d944"
     id="path89" />
  <circle
     cx="478"
     cy="266.47"
     r="25"
     fill="#26d944"
     opacity="0.1"
     id="circle91" />
  <path
     d="M181,776.83a6,6,0,0,1,4.23-3.72,12.17,12.17,0,0,1,3.11-.29c6.33.11,11.13,3,16.91,4.33,5.52,1.31,11.81,1.24,17.86,1.14a59.93,59.93,0,0,0,11.33-.9c6.05-1.28,10-4.3,13.68-7.16"
     transform="translate(-27.5 -84.77)"
     fill="#26d944"
     opacity="0.3"
     id="path93" />
  <path
     d="M887,766.83a6,6,0,0,1,4.23-3.72,12.17,12.17,0,0,1,3.11-.29c6.33.11,11.13,3,16.91,4.33,5.52,1.31,11.81,1.24,17.86,1.14a59.93,59.93,0,0,0,11.33-.9c6-1.28,10-4.3,13.68-7.16"
     transform="translate(-27.5 -84.77)"
     fill="#26d944"
     opacity="0.3"
     id="path95" />
  <path
     d="M943,788.83a6,6,0,0,1,4.23-3.72,12.17,12.17,0,0,1,3.11-.29c6.33.11,11.13,3,16.91,4.33,5.52,1.31,11.81,1.24,17.86,1.14a59.93,59.93,0,0,0,11.33-.9c6-1.28,10-4.3,13.68-7.16"
     transform="translate(-27.5 -84.77)"
     fill="#26d944"
     opacity="0.3"
     id="path97" />
  <path
     d="M896,783.88a2.09,2.09,0,0,1,1.54-1,5.28,5.28,0,0,1,1.14-.08c2.31,0,4.06.83,6.17,1.22a34.79,34.79,0,0,0,6.52.33,27.76,27.76,0,0,0,4.13-.26,13,13,0,0,0,5-2"
     transform="translate(-27.5 -84.77)"
     fill="#26d944"
     opacity="0.3"
     id="path99" />
  <path
     d="M906,772.88a2.09,2.09,0,0,1,1.54-1,5.28,5.28,0,0,1,1.14-.08c2.31,0,4.06.83,6.17,1.22a34.79,34.79,0,0,0,6.52.33,27.76,27.76,0,0,0,4.13-.26,13,13,0,0,0,5-2"
     transform="translate(-27.5 -84.77)"
     fill="#26d944"
     opacity="0.3"
     id="path101" />
  <path
     d="M282,755a2.2,2.2,0,0,1,1.61-1,6.4,6.4,0,0,1,1.18-.07c2.4,0,4.23.76,6.42,1.12a41.84,41.84,0,0,0,6.79.3,33.29,33.29,0,0,0,4.3-.24,14.41,14.41,0,0,0,5.2-1.86"
     transform="translate(-27.5 -84.77)"
     fill="#26d944"
     opacity="0.3"
     id="path103" />
  <path
     d="M253,756a2.2,2.2,0,0,1,1.61-1,6.4,6.4,0,0,1,1.18-.07c2.4,0,4.23.76,6.42,1.12a41.84,41.84,0,0,0,6.79.3,33.29,33.29,0,0,0,4.3-.24,14.41,14.41,0,0,0,5.2-1.86"
     transform="translate(-27.5 -84.77)"
     fill="#26d944"
     opacity="0.3"
     id="path105" />
  <path
     d="M240,796.83a6,6,0,0,1,4.23-3.72,12.17,12.17,0,0,1,3.11-.29c6.33.11,11.13,3,16.91,4.33,5.52,1.31,11.81,1.24,17.86,1.14a59.93,59.93,0,0,0,11.33-.9c6.05-1.28,10-4.3,13.68-7.16"
     transform="translate(-27.5 -84.77)"
     fill="#26d944"
     opacity="0.3"
     id="path107" />
  <path
     d="M300,814.7s83.16-38.8,114.47-25.19S519.32,800.4,519.32,800.4,650,795,665,800.4s151.12,5.45,157.92,0,84.41-9.53,96.67,0a109.45,109.45,0,0,0,24.5,14.3Z"
     transform="translate(-27.5 -84.77)"
     fill="#e8eaf2"
     id="path141" />
  <path
     d="M300,814.7s83.16-46.09,114.47-29.92,104.83,12.94,104.83,12.94,130.7-6.47,145.68,0,151.12,6.47,157.92,0,84.41-11.32,96.67,0a106,106,0,0,0,24.5,17Z"
     transform="translate(-27.5 -84.77)"
     fill="#26d944"
     opacity="0.3"
     id="path143" />
  <metadata
     id="metadata964">
    <rdf:RDF>
      <cc:Work
         rdf:about="">
        <dc:title>japan</dc:title>
      </cc:Work>
    </rdf:RDF>
  </metadata>
</svg>
