<svg width="1000" height="240" viewBox="0 0 264.58335 63.5" version="1.1" id="svg5" xml:space="preserve" xmlns:xlink="http://www.w3.org/1999/xlink" xmlns="http://www.w3.org/2000/svg"><defs id="defs2"><linearGradient id="linearGradient9"><stop style="stop-color:#00a855;stop-opacity:1" offset="0" id="stop7"/><stop style="stop-color:#37e237;stop-opacity:1" offset="1" id="stop9"/></linearGradient><linearGradient xlink:href="#linearGradient9" id="linearGradient10" gradientUnits="userSpaceOnUse" gradientTransform="matrix(1.0005 0 0 1.00897 -493.80345 -1086.5503)" x1="790.51611" y1="1272.4191" x2="790.51611" y2="1201.5186"/><style id="style6568">.cls-2{fill:#aa392d}.cls-3{fill:#7c211a}.cls-4{fill:#e59973}.cls-5{fill:#2d2d2d}.cls-6{opacity:.2}.cls-7{opacity:.3}.cls-1{fill:none}.cls-2{clip-path:url(#clip-path)}.st1{stroke-linecap:round}.st2,.st3{stroke-linejoin:round;stroke-miterlimit:10}.st2{fill:none;stroke:#6a83ba;stroke-width:4;stroke-linecap:round}.st3{fill:#8a8aff;stroke:#8a8aff}.st3,.st4,.st5{stroke-width:2;stroke-linecap:round}.st4{fill:#6c3db7;stroke:#6c3db7;stroke-linejoin:round;stroke-miterlimit:10}.st5{fill:#a576ff;stroke:#a576ff}.st5,.st6,.st7{stroke-linejoin:round;stroke-miterlimit:10}.st6{fill:#f2bb41;stroke:#f2bb41;stroke-width:2;stroke-linecap:round}.st7{fill:#e08838;stroke:#e08838}.st7,.st8,.st9{stroke-width:2;stroke-linecap:round}.st8{fill:#1f992a;stroke:#1f992a;stroke-linejoin:round;stroke-miterlimit:10}.st9{fill:#5ec11e;stroke:#5ec11e}.st10,.st11,.st9{stroke-linejoin:round;stroke-miterlimit:10}.st10{fill:#e3faff;stroke:#e3faff;stroke-width:2;stroke-linecap:round}.st11{fill:#ff5093;stroke:#ff5093}.st11,.st12,.st13{stroke-width:2;stroke-linecap:round}.st12{fill:#b7257f;stroke:#b7257f;stroke-linejoin:round;stroke-miterlimit:10}.st13{fill:#5189e5;stroke:#5189e5}.st13,.st14,.st15{stroke-linejoin:round;stroke-miterlimit:10}.st14{fill:#6ebaff;stroke:#6ebaff;stroke-width:2;stroke-linecap:round}.st15{fill:#edd977;stroke:#edd977}.st15,.st16,.st17{stroke-width:2;stroke-linecap:round}.st16{fill:#8c43ff;stroke:#8c43ff;stroke-linejoin:round;stroke-miterlimit:10}.st17{fill:#5252ba;stroke:#5252ba}.st1,.st17,.st18,.st19{stroke-linejoin:round;stroke-miterlimit:10}.st18{fill:none;stroke:#e3faff;stroke-width:4;stroke-linecap:round}.st1,.st19{stroke-width:2}.st19{fill:#354c75;stroke:#354c75;stroke-linecap:round}.st1{stroke:#000;fill:#454545}.linesandangles_een{fill:#111918}.st0{fill:none;stroke:#000;stroke-width:2;stroke-linecap:round;stroke-linejoin:round;stroke-miterlimit:10}</style></defs><g id="layer1" transform="translate(-167.48856 -124.16691)"><path id="path9" style="color:#000;fill:url(#linearGradient10);stroke-width:0;-inkscape-stroke:none" d="M205.93351 124.16756c-1.60671-.0292-3.27024.92272-3.98727 3.14253-.78705 2.43675-1.53859 4.87934-2.13955 6.61336-1.52131 4.72925-2.93695 9.4651-4.51727 14.16601-7.84032-2.83893-17.56223-1.38754-22.98005 5.40887-6.92631 7.923-6.3044 21.03229 1.31988 28.2672 8.02679 8.5407 23.18533 7.24215 30.12381-2.07131 5.75726-6.74686 8.22524-15.79489 14.41522-22.18052 5.75678-4.7148 15.43748-2.97535 18.72861 3.90057 3.96228 7.67934-1.59785 17.69566-10.33622 17.65852-4.57185.181-5.967-2.02883-9.30823-3.18047-3.95501-1.25153-7.89635 3.90077-3.83413 7.42379 9.14755 6.94136 22.88635 5.12048 29.16872-4.28792 6.1863-8.35546 4.66706-21.14299-3.25489-27.82912-8.35071-7.75207-22.87638-5.89769-29.47717 3.28914-5.5909 6.68695-7.72048 15.89485-14.1383 21.83888-5.46198 5.05876-15.43733 2.97504-18.7286-3.90116-4.15238-7.34942 1.77201-17.39731 10.29423-17.45946 3.78325-.0413 6.11264 1.52555 9.1258 2.58123 4.70152 1.29078 5.24385-2.21136 6.33735-5.42672 2.43558-7.56564 4.38989-14.94269 6.73755-22.48886 1.02609-3.29821-1.20124-5.4249-3.54949-5.46456zm76.47841.0534c-1.80959.0252-3.66367 1.13236-4.28237 3.46085l-14.53243 54.15888c-1.56145 5.78472 6.47766 8.11421 8.28789 2.2613l14.41857-54.20126c.98408-3.70371-1.41182-5.71145-3.89166-5.67977zm112.67839.12862c-1.90751-.016-3.65698 1.32175-4.2708 3.3415l-6.26937 20.63387c-7.11857-3.34471-16.18271-2.55562-22.18526 3.28963-7.89201 6.72578-9.3381 19.52392-3.10953 27.84425 6.13279 9.50679 20.0612 10.20004 29.24664 4.04988 3.63784-2.55711 1.60172-8.72807-3.41518-7.37301-3.31554 1.43212-5.23455 3.29701-9.888 3.29519-8.31103 0-14.04725-9.47874-10.57113-16.86195 3.0202-7.50561 12.03036-9.32608 18.54731-5.54043 6.04697 3.64981 7.30755 9.37359 11.20398 16.88878 4.51064 8.69991 9.51837 13.62498 18.282 13.69772 10.43723.1219 17.78685-5.90558 18.97234-16.69315.6927-6.30342.32958-12.68372.43495-19.02517.0412-2.67113-1.76547-4.8522-4.05079-4.88885-2.28532-.0372-4.0031 2.08332-4.04417 4.75447l-.4173 15.74783c-.10228 1.44382-.18246 3.01561-.87605 5.34863-2.90936 6.70661-10.79844 8.39652-16.53543 3.5099-6.50305-6.16983-7.60372-16.85044-14.20687-23.59247l6.69996-22.95083c.72737-2.39389-.18727-4.67587-2.47779-5.32141-.3579-.1009-.71626-.15093-1.06951-.15376zm-128.90458 22.05463c-8.74957.0535-13.14004 6.47486-14.89499 12.94475-1.96832 7.25648-2.92825 15.40157-8.60458 20.90578-3.53348 4.06958 2.19303 10.8358 7.53453 5.02879 7.52937-7.58894 6.3495-19.55116 11.17967-27.15531 2.47967-3.88644 7.1719-1.81977 9.01747-5.04211 1.7304-3.43068-.59701-6.62479-3.81205-6.67905h-.42005zm29.71181.32984c-1.03649 0-2.08188.0675-3.13276.18112-10.73136 1.08502-18.50229 12.30071-16.85492 22.83826 1.171 10.35965 10.09007 18.09559 21.49048 17.63955 8.30482-.35921 14.89881-6.44477 18.717-13.45084 3.6631-5.46991 5.94373-12.2094 11.1476-16.46229 6.11909-4.17793 15.43464-1.72614 18.28641 5.27891 3.41574 7.41188-2.20654 16.88818-10.95913 16.6887-4.26887.28978-6.20223-2.03901-9.34966-3.21717-4.39765-1.24174-7.38671 4.04432-3.7573 7.12612 7.74272 6.57442 22.80656 5.80066 29.21181-3.5109 6.29629-8.26829 4.95449-21.07823-2.88238-27.86925-8.2485-7.88531-22.79444-6.1984-29.52024 2.88885-5.67445 6.60926-8.24512 15.45828-14.42573 21.64667-5.95904 4.76434-15.84069 2.6232-18.88058-4.55275-3.63496-7.41409 1.92925-16.8225 10.70323-16.96406 5.20919-.14752 6.2836 1.83047 9.41156 3.17491 4.40982 1.43686 6.9645-4.09953 3.46881-7.21482-3.86041-3.12306-8.18278-4.23725-12.6742-4.22111z"/></g></svg>